<svg width="332" height="19" viewBox="0 0 332 19" fill="none" xmlns="http://www.w3.org/2000/svg">
<path d="M4.048 15.3441C3.28 15.3441 2.63466 15.2268 2.112 14.9921C1.6 14.7575 1.184 14.3841 0.863996 13.8721C0.554662 13.3601 0.330662 12.6828 0.191996 11.8401C0.0639956 10.9868 -4.35114e-06 9.94145 -4.35114e-06 8.70412C-4.35114e-06 7.46678 0.0639956 6.42678 0.191996 5.58412C0.330662 4.74145 0.554662 4.06412 0.863996 3.55212C1.184 3.04012 1.6 2.67212 2.112 2.44812C2.63466 2.21345 3.28 2.09612 4.048 2.09612C4.74133 2.09612 5.312 2.18678 5.76 2.36812C6.21866 2.54945 6.592 2.84812 6.88 3.26412C7.17866 3.68012 7.43466 4.25078 7.648 4.97612L6.512 5.37612C6.34133 4.81078 6.15466 4.36812 5.952 4.04812C5.74933 3.72812 5.49866 3.50945 5.2 3.39212C4.912 3.26412 4.528 3.20012 4.048 3.20012C3.33333 3.20012 2.768 3.36545 2.352 3.69612C1.936 4.02678 1.63733 4.59212 1.456 5.39212C1.28533 6.19212 1.2 7.29612 1.2 8.70412C1.2 10.1015 1.28533 11.2055 1.456 12.0161C1.63733 12.8161 1.936 13.3868 2.352 13.7281C2.768 14.0695 3.33333 14.2401 4.048 14.2401C4.528 14.2401 4.912 14.1761 5.2 14.0481C5.49866 13.9201 5.74933 13.7015 5.952 13.3921C6.15466 13.0828 6.34133 12.6508 6.512 12.0961L7.648 12.4801C7.43466 13.1948 7.17866 13.7655 6.88 14.1921C6.592 14.6081 6.224 14.9068 5.776 15.0881C5.328 15.2588 4.752 15.3441 4.048 15.3441ZM13.4017 15.3441C12.4951 15.3441 11.7751 15.1788 11.2417 14.8481C10.7084 14.5175 10.3297 13.9735 10.1057 13.2161C9.88175 12.4588 9.76975 11.4455 9.76975 10.1761C9.76975 8.89612 9.88175 7.87745 10.1057 7.12012C10.3297 6.36278 10.7084 5.82412 11.2417 5.50412C11.7751 5.17345 12.4951 5.00812 13.4017 5.00812C14.3191 5.00812 15.0391 5.17345 15.5617 5.50412C16.0951 5.82412 16.4737 6.36278 16.6977 7.12012C16.9324 7.87745 17.0497 8.89612 17.0497 10.1761C17.0497 11.4455 16.9324 12.4588 16.6977 13.2161C16.4737 13.9735 16.0951 14.5175 15.5617 14.8481C15.0391 15.1788 14.3191 15.3441 13.4017 15.3441ZM13.4017 14.2401C14.0311 14.2401 14.5217 14.1175 14.8737 13.8721C15.2257 13.6161 15.4764 13.1948 15.6257 12.6081C15.7751 12.0108 15.8497 11.2001 15.8497 10.1761C15.8497 9.13078 15.7751 8.31478 15.6257 7.72812C15.4764 7.14145 15.2257 6.72545 14.8737 6.48012C14.5217 6.23478 14.0311 6.11212 13.4017 6.11212C12.7831 6.11212 12.2924 6.23478 11.9297 6.48012C11.5777 6.72545 11.3271 7.14145 11.1777 7.72812C11.0391 8.31478 10.9697 9.13078 10.9697 10.1761C10.9697 11.2001 11.0391 12.0108 11.1777 12.6081C11.3271 13.1948 11.5777 13.6161 11.9297 13.8721C12.2924 14.1175 12.7831 14.2401 13.4017 14.2401ZM19.5715 15.1201V5.23212H20.7715V5.95212C21.0595 5.63212 21.4062 5.39745 21.8115 5.24812C22.2168 5.08812 22.7608 5.00812 23.4435 5.00812C24.2542 5.00812 24.8888 5.12545 25.3475 5.36012C25.8062 5.59478 26.1315 5.99478 26.3235 6.56012C26.5155 7.11478 26.6115 7.87745 26.6115 8.84812V15.1201H25.4115V8.84812C25.4115 8.15478 25.3475 7.61078 25.2195 7.21612C25.1022 6.81078 24.8995 6.52812 24.6115 6.36812C24.3342 6.19745 23.9448 6.11212 23.4435 6.11212C22.7395 6.11212 22.1902 6.18145 21.7955 6.32012C21.4115 6.45878 21.1448 6.71478 20.9955 7.08812C20.8462 7.45078 20.7715 7.97878 20.7715 8.67212V15.1201H19.5715ZM32.1892 15.3441C31.6559 15.3441 31.2026 15.2855 30.8292 15.1681C30.4666 15.0615 30.1466 14.8748 29.8692 14.6081C29.5919 14.3308 29.3306 13.9681 29.0852 13.5201L30.0292 12.7361C30.2106 13.1201 30.3919 13.4241 30.5732 13.6481C30.7546 13.8615 30.9732 14.0161 31.2292 14.1121C31.4852 14.1975 31.8052 14.2401 32.1892 14.2401C32.9679 14.2401 33.5706 14.1815 33.9972 14.0641C34.4239 13.9468 34.7226 13.7548 34.8932 13.4881C35.0746 13.2108 35.1652 12.8375 35.1652 12.3681C35.1652 11.9308 35.0906 11.5948 34.9412 11.3601C34.7919 11.1148 34.5359 10.9281 34.1732 10.8001C33.8106 10.6721 33.3039 10.5655 32.6532 10.4801C31.8319 10.3735 31.1706 10.2188 30.6692 10.0161C30.1679 9.80278 29.8052 9.52012 29.5812 9.16812C29.3679 8.80545 29.2612 8.36278 29.2612 7.84012C29.2612 7.13612 29.3786 6.57612 29.6132 6.16012C29.8479 5.74412 30.2372 5.45078 30.7812 5.28012C31.3252 5.09878 32.0612 5.00812 32.9892 5.00812C33.5546 5.00812 34.0292 5.05612 34.4132 5.15212C34.7972 5.24812 35.1279 5.40812 35.4052 5.63212C35.6932 5.85612 35.9652 6.16545 36.2212 6.56012L35.3412 7.40812C35.1492 7.06678 34.9519 6.80545 34.7492 6.62412C34.5572 6.43212 34.3226 6.29878 34.0452 6.22412C33.7786 6.14945 33.4266 6.11212 32.9892 6.11212C32.3386 6.11212 31.8266 6.16545 31.4532 6.27212C31.0799 6.36812 30.8186 6.54412 30.6692 6.80012C30.5306 7.05612 30.4612 7.40278 30.4612 7.84012C30.4612 8.26678 30.6266 8.59745 30.9572 8.83212C31.2879 9.06678 31.8692 9.23745 32.7012 9.34412C33.6186 9.47212 34.3439 9.64812 34.8772 9.87212C35.4106 10.0855 35.7892 10.3895 36.0132 10.7841C36.2479 11.1788 36.3652 11.7068 36.3652 12.3681C36.3652 13.1041 36.2319 13.6908 35.9652 14.1281C35.6986 14.5548 35.2612 14.8641 34.6532 15.0561C34.0559 15.2481 33.2346 15.3441 32.1892 15.3441ZM42.183 15.3441C41.2763 15.3441 40.5563 15.1788 40.023 14.8481C39.4897 14.5175 39.111 13.9735 38.887 13.2161C38.663 12.4588 38.551 11.4455 38.551 10.1761C38.551 8.89612 38.663 7.87745 38.887 7.12012C39.111 6.36278 39.4897 5.82412 40.023 5.50412C40.5563 5.17345 41.2763 5.00812 42.183 5.00812C43.1003 5.00812 43.8203 5.17345 44.343 5.50412C44.8763 5.82412 45.255 6.36278 45.479 7.12012C45.7137 7.87745 45.831 8.89612 45.831 10.1761C45.831 11.4455 45.7137 12.4588 45.479 13.2161C45.255 13.9735 44.8763 14.5175 44.343 14.8481C43.8203 15.1788 43.1003 15.3441 42.183 15.3441ZM42.183 14.2401C42.8123 14.2401 43.303 14.1175 43.655 13.8721C44.007 13.6161 44.2577 13.1948 44.407 12.6081C44.5563 12.0108 44.631 11.2001 44.631 10.1761C44.631 9.13078 44.5563 8.31478 44.407 7.72812C44.2577 7.14145 44.007 6.72545 43.655 6.48012C43.303 6.23478 42.8123 6.11212 42.183 6.11212C41.5643 6.11212 41.0737 6.23478 40.711 6.48012C40.359 6.72545 40.1083 7.14145 39.959 7.72812C39.8203 8.31478 39.751 9.13078 39.751 10.1761C39.751 11.2001 39.8203 12.0108 39.959 12.6081C40.1083 13.1948 40.359 13.6161 40.711 13.8721C41.0737 14.1175 41.5643 14.2401 42.183 14.2401ZM53.4567 15.3441C52.8061 15.3441 52.2887 15.2321 51.9047 15.0081C51.5314 14.7841 51.2647 14.4108 51.1047 13.8881C50.9447 13.3548 50.8647 12.6295 50.8647 11.7121V3.42412H48.8487V2.32012H52.0647V11.7121C52.0647 12.3521 52.1074 12.8588 52.1927 13.2321C52.2781 13.5948 52.4221 13.8561 52.6247 14.0161C52.8274 14.1655 53.1047 14.2401 53.4567 14.2401C53.6807 14.2401 53.8941 14.1921 54.0967 14.0961C54.2994 13.9895 54.5607 13.7975 54.8807 13.5201L55.5687 14.5601C55.1421 14.8481 54.7741 15.0508 54.4647 15.1681C54.1661 15.2855 53.8301 15.3441 53.4567 15.3441ZM61.4185 15.3441C60.4265 15.3441 59.6425 15.1895 59.0665 14.8801C58.5012 14.5601 58.1012 14.0215 57.8665 13.2641C57.6318 12.5068 57.5145 11.4775 57.5145 10.1761C57.5145 8.86412 57.6318 7.83478 57.8665 7.08812C58.1012 6.33078 58.5012 5.79745 59.0665 5.48812C59.6425 5.16812 60.4265 5.00812 61.4185 5.00812C62.3892 5.00812 63.1518 5.17345 63.7065 5.50412C64.2612 5.82412 64.6558 6.37878 64.8905 7.16812C65.1252 7.94678 65.2425 9.01345 65.2425 10.3681H57.9785V9.26412H64.0105C64.0105 8.46412 63.9305 7.83478 63.7705 7.37612C63.6212 6.91745 63.3545 6.59212 62.9705 6.40012C62.5972 6.20812 62.0798 6.11212 61.4185 6.11212C60.7252 6.11212 60.1812 6.23478 59.7865 6.48012C59.4025 6.71478 59.1252 7.11478 58.9545 7.68012C58.7945 8.24545 58.7145 9.02945 58.7145 10.0321C58.7145 11.0881 58.7945 11.9255 58.9545 12.5441C59.1252 13.1521 59.4025 13.5895 59.7865 13.8561C60.1812 14.1121 60.7252 14.2401 61.4185 14.2401C61.8132 14.2401 62.1545 14.1975 62.4425 14.1121C62.7305 14.0268 62.9972 13.8881 63.2425 13.6961C63.4985 13.4935 63.7545 13.2161 64.0105 12.8641L64.9705 13.5041C64.6505 13.9735 64.3252 14.3415 63.9945 14.6081C63.6745 14.8748 63.3065 15.0615 62.8905 15.1681C62.4852 15.2855 61.9945 15.3441 61.4185 15.3441Z" fill="#9CDCFE"/>
<path d="M70.9642 15.3441C70.5269 15.3441 70.2229 15.2695 70.0522 15.1201C69.8922 14.9601 69.8122 14.6721 69.8122 14.2561C69.8122 13.8508 69.8922 13.5735 70.0522 13.4241C70.2229 13.2641 70.5269 13.1841 70.9642 13.1841C71.4122 13.1841 71.7162 13.2641 71.8762 13.4241C72.0362 13.5735 72.1162 13.8508 72.1162 14.2561C72.1162 14.6721 72.0362 14.9601 71.8762 15.1201C71.7162 15.2695 71.4122 15.3441 70.9642 15.3441ZM328.315 18.2561C328.678 17.6801 328.961 17.2055 329.163 16.8321C329.377 16.4695 329.526 16.1708 329.611 15.9361C329.697 15.7121 329.739 15.5148 329.739 15.3441C329.398 15.3441 329.163 15.2695 329.035 15.1201C328.907 14.9601 328.843 14.6721 328.843 14.2561C328.843 13.8508 328.923 13.5735 329.083 13.4241C329.254 13.2641 329.558 13.1841 329.995 13.1841C330.443 13.1841 330.747 13.2641 330.907 13.4241C331.067 13.5735 331.147 13.8508 331.147 14.2561C331.147 14.7041 331.094 15.1255 330.987 15.5201C330.881 15.9148 330.699 16.3255 330.443 16.7521C330.198 17.1895 329.851 17.6908 329.403 18.2561H328.315ZM329.995 7.20012C329.558 7.20012 329.254 7.12545 329.083 6.97612C328.923 6.81612 328.843 6.52812 328.843 6.11212C328.843 5.70678 328.923 5.42945 329.083 5.28012C329.254 5.12012 329.558 5.04012 329.995 5.04012C330.443 5.04012 330.747 5.12012 330.907 5.28012C331.067 5.42945 331.147 5.70678 331.147 6.11212C331.147 6.52812 331.067 6.81612 330.907 6.97612C330.747 7.12545 330.443 7.20012 329.995 7.20012Z" fill="white"/>
<path d="M77.854 15.1201L76.094 2.32012H77.31L78.622 12.1761L79.998 6.35212H81.118L82.51 12.1761L83.806 2.32012H85.022L83.262 15.1201H82.11L80.558 8.84812L79.054 15.1201H77.854ZM87.1597 15.1201V5.23212H88.3597V6.73612C88.4877 6.44812 88.6744 6.17612 88.9197 5.92012C89.1757 5.65345 89.4797 5.43478 89.8317 5.26412C90.1837 5.09345 90.5677 5.00812 90.9837 5.00812C91.5277 5.00812 91.9811 5.07745 92.3437 5.21612C92.7064 5.34412 93.0157 5.56278 93.2717 5.87212C93.5277 6.18145 93.7624 6.60812 93.9757 7.15212L92.9037 7.63212C92.7651 7.23745 92.6157 6.93345 92.4557 6.72012C92.2957 6.49612 92.0984 6.34145 91.8637 6.25612C91.6397 6.16012 91.3464 6.11212 90.9837 6.11212C90.4824 6.11212 90.0611 6.22412 89.7197 6.44812C89.3891 6.66145 89.1224 6.94412 88.9197 7.29612C88.7171 7.64812 88.5731 8.03212 88.4877 8.44812C88.4024 8.85345 88.3597 9.24278 88.3597 9.61612V15.1201H87.1597ZM99.5695 15.1201V5.58412L100.321 6.33612H97.5535V5.23212H100.769V15.1201H99.5695ZM96.7695 15.1201V14.0161H103.569V15.1201H96.7695ZM99.8255 3.40812C99.4202 3.40812 99.1375 3.33878 98.9775 3.20012C98.8282 3.05078 98.7535 2.77878 98.7535 2.38412C98.7535 2.00012 98.8282 1.73878 98.9775 1.60012C99.1375 1.45078 99.4202 1.37612 99.8255 1.37612C100.241 1.37612 100.524 1.45078 100.673 1.60012C100.833 1.73878 100.913 2.00012 100.913 2.38412C100.913 2.77878 100.833 3.05078 100.673 3.20012C100.524 3.33878 100.241 3.40812 99.8255 3.40812ZM110.379 15.3441C109.665 15.3441 109.094 15.2215 108.667 14.9761C108.241 14.7201 107.931 14.3255 107.739 13.7921C107.558 13.2481 107.467 12.5388 107.467 11.6641V6.25612H105.483V5.15212H107.467V2.32012H108.667V5.15212H111.995V6.25612H108.667V11.6641C108.667 12.6028 108.79 13.2695 109.035 13.6641C109.291 14.0481 109.739 14.2401 110.379 14.2401C110.763 14.2401 111.062 14.2135 111.275 14.1601C111.499 14.0961 111.67 13.9948 111.787 13.8561C111.915 13.7068 112.022 13.4988 112.107 13.2321L113.243 13.6161C113.094 14.0535 112.907 14.4001 112.683 14.6561C112.459 14.9015 112.161 15.0775 111.787 15.1841C111.425 15.2908 110.955 15.3441 110.379 15.3441ZM118.981 15.3441C117.989 15.3441 117.205 15.1895 116.629 14.8801C116.064 14.5601 115.664 14.0215 115.429 13.2641C115.194 12.5068 115.077 11.4775 115.077 10.1761C115.077 8.86412 115.194 7.83478 115.429 7.08812C115.664 6.33078 116.064 5.79745 116.629 5.48812C117.205 5.16812 117.989 5.00812 118.981 5.00812C119.952 5.00812 120.714 5.17345 121.269 5.50412C121.824 5.82412 122.218 6.37878 122.453 7.16812C122.688 7.94678 122.805 9.01345 122.805 10.3681H115.541V9.26412H121.573C121.573 8.46412 121.493 7.83478 121.333 7.37612C121.184 6.91745 120.917 6.59212 120.533 6.40012C120.16 6.20812 119.642 6.11212 118.981 6.11212C118.288 6.11212 117.744 6.23478 117.349 6.48012C116.965 6.71478 116.688 7.11478 116.517 7.68012C116.357 8.24545 116.277 9.02945 116.277 10.0321C116.277 11.0881 116.357 11.9255 116.517 12.5441C116.688 13.1521 116.965 13.5895 117.349 13.8561C117.744 14.1121 118.288 14.2401 118.981 14.2401C119.376 14.2401 119.717 14.1975 120.005 14.1121C120.293 14.0268 120.56 13.8881 120.805 13.6961C121.061 13.4935 121.317 13.2161 121.573 12.8641L122.533 13.5041C122.213 13.9735 121.888 14.3415 121.557 14.6081C121.237 14.8748 120.869 15.0615 120.453 15.1681C120.048 15.2855 119.557 15.3441 118.981 15.3441ZM125.471 15.1201V2.32012H126.671V14.0161H132.031V15.1201H125.471ZM137.944 15.1201V5.58412L138.696 6.33612H135.928V5.23212H139.144V15.1201H137.944ZM135.144 15.1201V14.0161H141.944V15.1201H135.144ZM138.2 3.40812C137.795 3.40812 137.512 3.33878 137.352 3.20012C137.203 3.05078 137.128 2.77878 137.128 2.38412C137.128 2.00012 137.203 1.73878 137.352 1.60012C137.512 1.45078 137.795 1.37612 138.2 1.37612C138.616 1.37612 138.899 1.45078 139.048 1.60012C139.208 1.73878 139.288 2.00012 139.288 2.38412C139.288 2.77878 139.208 3.05078 139.048 3.20012C138.899 3.33878 138.616 3.40812 138.2 3.40812ZM144.29 15.1201V5.23212H145.49V5.95212C145.778 5.63212 146.125 5.39745 146.53 5.24812C146.936 5.08812 147.48 5.00812 148.162 5.00812C148.973 5.00812 149.608 5.12545 150.066 5.36012C150.525 5.59478 150.85 5.99478 151.042 6.56012C151.234 7.11478 151.33 7.87745 151.33 8.84812V15.1201H150.13V8.84812C150.13 8.15478 150.066 7.61078 149.938 7.21612C149.821 6.81078 149.618 6.52812 149.33 6.36812C149.053 6.19745 148.664 6.11212 148.162 6.11212C147.458 6.11212 146.909 6.18145 146.514 6.32012C146.13 6.45878 145.864 6.71478 145.714 7.08812C145.565 7.45078 145.49 7.97878 145.49 8.67212V15.1201H144.29ZM157.356 15.3441C156.364 15.3441 155.58 15.1895 155.004 14.8801C154.439 14.5601 154.039 14.0215 153.804 13.2641C153.569 12.5068 153.452 11.4775 153.452 10.1761C153.452 8.86412 153.569 7.83478 153.804 7.08812C154.039 6.33078 154.439 5.79745 155.004 5.48812C155.58 5.16812 156.364 5.00812 157.356 5.00812C158.327 5.00812 159.089 5.17345 159.644 5.50412C160.199 5.82412 160.593 6.37878 160.828 7.16812C161.063 7.94678 161.18 9.01345 161.18 10.3681H153.916V9.26412H159.948C159.948 8.46412 159.868 7.83478 159.708 7.37612C159.559 6.91745 159.292 6.59212 158.908 6.40012C158.535 6.20812 158.017 6.11212 157.356 6.11212C156.663 6.11212 156.119 6.23478 155.724 6.48012C155.34 6.71478 155.063 7.11478 154.892 7.68012C154.732 8.24545 154.652 9.02945 154.652 10.0321C154.652 11.0881 154.732 11.9255 154.892 12.5441C155.063 13.1521 155.34 13.5895 155.724 13.8561C156.119 14.1121 156.663 14.2401 157.356 14.2401C157.751 14.2401 158.092 14.1975 158.38 14.1121C158.668 14.0268 158.935 13.8881 159.18 13.6961C159.436 13.4935 159.692 13.2161 159.948 12.8641L160.908 13.5041C160.588 13.9735 160.263 14.3415 159.932 14.6081C159.612 14.8748 159.244 15.0615 158.828 15.1681C158.423 15.2855 157.932 15.3441 157.356 15.3441Z" fill="#DCDCAA"/>
<path d="M169.35 17.4401C168.39 17.4401 167.552 17.0775 166.838 16.3521C166.123 15.6268 165.568 14.6081 165.174 13.2961C164.779 11.9841 164.582 10.4588 164.582 8.72012C164.582 6.97078 164.779 5.44545 165.174 4.14412C165.568 2.83212 166.123 1.81345 166.838 1.08812C167.552 0.362783 168.39 0.000116348 169.35 0.000116348V1.10412C168.635 1.10412 168.011 1.42412 167.478 2.06412C166.944 2.69345 166.528 3.57878 166.23 4.72012C165.931 5.86145 165.782 7.19478 165.782 8.72012C165.782 10.2455 165.931 11.5788 166.23 12.7201C166.528 13.8615 166.944 14.7468 167.478 15.3761C168.011 16.0161 168.635 16.3361 169.35 16.3361V17.4401ZM317.97 17.4401V16.3361C318.684 16.3361 319.308 16.0161 319.842 15.3761C320.375 14.7468 320.791 13.8615 321.09 12.7201C321.388 11.5788 321.538 10.2455 321.538 8.72012C321.538 7.19478 321.388 5.86145 321.09 4.72012C320.791 3.57878 320.375 2.69345 319.842 2.06412C319.308 1.42412 318.684 1.10412 317.97 1.10412V0.000116348C318.919 0.000116348 319.751 0.362783 320.466 1.08812C321.18 1.81345 321.735 2.83212 322.13 4.14412C322.535 5.44545 322.738 6.97078 322.738 8.72012C322.738 10.4588 322.535 11.9841 322.13 13.2961C321.735 14.6081 321.18 15.6268 320.466 16.3521C319.751 17.0775 318.919 17.4401 317.97 17.4401Z" fill="#1B8FFF"/>
<path d="M180.175 2.09612C179.823 2.66145 179.541 3.13078 179.327 3.50412C179.125 3.86678 178.981 4.16545 178.895 4.40012C178.81 4.63478 178.767 4.83212 178.767 4.99212C179.098 4.99212 179.327 5.07212 179.455 5.23212C179.583 5.39212 179.647 5.67478 179.647 6.08012C179.647 6.48545 179.567 6.76812 179.407 6.92812C179.247 7.08812 178.943 7.16812 178.495 7.16812C178.058 7.16812 177.754 7.08812 177.583 6.92812C177.423 6.76812 177.343 6.48545 177.343 6.08012C177.343 5.63212 177.397 5.21078 177.503 4.81612C177.61 4.42145 177.791 4.01078 178.047 3.58412C178.314 3.14678 178.666 2.65078 179.103 2.09612H180.175ZM175.775 2.09612C175.423 2.66145 175.141 3.13078 174.927 3.50412C174.725 3.86678 174.581 4.16545 174.495 4.40012C174.41 4.63478 174.367 4.83212 174.367 4.99212C174.698 4.99212 174.927 5.07212 175.055 5.23212C175.183 5.39212 175.247 5.67478 175.247 6.08012C175.247 6.48545 175.167 6.76812 175.007 6.92812C174.847 7.08812 174.543 7.16812 174.095 7.16812C173.658 7.16812 173.354 7.08812 173.183 6.92812C173.023 6.76812 172.943 6.48545 172.943 6.08012C172.943 5.63212 172.997 5.21078 173.103 4.81612C173.21 4.42145 173.391 4.01078 173.647 3.58412C173.914 3.14678 174.266 2.65078 174.703 2.09612H175.775ZM188.553 15.1201V2.32012H189.753V15.1201H188.553ZM182.441 15.1201V2.32012H183.641V15.1201H182.441ZM182.905 8.89612V7.79212H189.289V8.89612H182.905ZM195.731 15.3441C194.739 15.3441 193.955 15.1895 193.379 14.8801C192.814 14.5601 192.414 14.0215 192.179 13.2641C191.944 12.5068 191.827 11.4775 191.827 10.1761C191.827 8.86412 191.944 7.83478 192.179 7.08812C192.414 6.33078 192.814 5.79745 193.379 5.48812C193.955 5.16812 194.739 5.00812 195.731 5.00812C196.702 5.00812 197.464 5.17345 198.019 5.50412C198.574 5.82412 198.968 6.37878 199.203 7.16812C199.438 7.94678 199.555 9.01345 199.555 10.3681H192.291V9.26412H198.323C198.323 8.46412 198.243 7.83478 198.083 7.37612C197.934 6.91745 197.667 6.59212 197.283 6.40012C196.91 6.20812 196.392 6.11212 195.731 6.11212C195.038 6.11212 194.494 6.23478 194.099 6.48012C193.715 6.71478 193.438 7.11478 193.267 7.68012C193.107 8.24545 193.027 9.02945 193.027 10.0321C193.027 11.0881 193.107 11.9255 193.267 12.5441C193.438 13.1521 193.715 13.5895 194.099 13.8561C194.494 14.1121 195.038 14.2401 195.731 14.2401C196.126 14.2401 196.467 14.1975 196.755 14.1121C197.043 14.0268 197.31 13.8881 197.555 13.6961C197.811 13.4935 198.067 13.2161 198.323 12.8641L199.283 13.5041C198.963 13.9735 198.638 14.3415 198.307 14.6081C197.987 14.8748 197.619 15.0615 197.203 15.1681C196.798 15.2855 196.307 15.3441 195.731 15.3441ZM206.957 15.3441C206.306 15.3441 205.789 15.2321 205.405 15.0081C205.031 14.7841 204.765 14.4108 204.605 13.8881C204.445 13.3548 204.365 12.6295 204.365 11.7121V3.42412H202.349V2.32012H205.565V11.7121C205.565 12.3521 205.607 12.8588 205.693 13.2321C205.778 13.5948 205.922 13.8561 206.125 14.0161C206.327 14.1655 206.605 14.2401 206.957 14.2401C207.181 14.2401 207.394 14.1921 207.597 14.0961C207.799 13.9895 208.061 13.7975 208.381 13.5201L209.069 14.5601C208.642 14.8481 208.274 15.0508 207.965 15.1681C207.666 15.2855 207.33 15.3441 206.957 15.3441ZM216.55 15.3441C215.9 15.3441 215.382 15.2321 214.998 15.0081C214.625 14.7841 214.358 14.4108 214.198 13.8881C214.038 13.3548 213.958 12.6295 213.958 11.7121V3.42412H211.942V2.32012H215.158V11.7121C215.158 12.3521 215.201 12.8588 215.286 13.2321C215.372 13.5948 215.516 13.8561 215.718 14.0161C215.921 14.1655 216.198 14.2401 216.55 14.2401C216.774 14.2401 216.988 14.1921 217.19 14.0961C217.393 13.9895 217.654 13.7975 217.974 13.5201L218.662 14.5601C218.236 14.8481 217.868 15.0508 217.558 15.1681C217.26 15.2855 216.924 15.3441 216.55 15.3441ZM224.464 15.3441C223.558 15.3441 222.838 15.1788 222.304 14.8481C221.771 14.5175 221.392 13.9735 221.168 13.2161C220.944 12.4588 220.832 11.4455 220.832 10.1761C220.832 8.89612 220.944 7.87745 221.168 7.12012C221.392 6.36278 221.771 5.82412 222.304 5.50412C222.838 5.17345 223.558 5.00812 224.464 5.00812C225.382 5.00812 226.102 5.17345 226.624 5.50412C227.158 5.82412 227.536 6.36278 227.76 7.12012C227.995 7.87745 228.112 8.89612 228.112 10.1761C228.112 11.4455 227.995 12.4588 227.76 13.2161C227.536 13.9735 227.158 14.5175 226.624 14.8481C226.102 15.1788 225.382 15.3441 224.464 15.3441ZM224.464 14.2401C225.094 14.2401 225.584 14.1175 225.936 13.8721C226.288 13.6161 226.539 13.1948 226.688 12.6081C226.838 12.0108 226.912 11.2001 226.912 10.1761C226.912 9.13078 226.838 8.31478 226.688 7.72812C226.539 7.14145 226.288 6.72545 225.936 6.48012C225.584 6.23478 225.094 6.11212 224.464 6.11212C223.846 6.11212 223.355 6.23478 222.992 6.48012C222.64 6.72545 222.39 7.14145 222.24 7.72812C222.102 8.31478 222.032 9.13078 222.032 10.1761C222.032 11.2001 222.102 12.0108 222.24 12.6081C222.39 13.1948 222.64 13.6161 222.992 13.8721C223.355 14.1175 223.846 14.2401 224.464 14.2401ZM232.378 18.2561C232.741 17.6801 233.023 17.2055 233.226 16.8321C233.439 16.4695 233.589 16.1708 233.674 15.9361C233.759 15.7121 233.802 15.5148 233.802 15.3441C233.461 15.3441 233.226 15.2695 233.098 15.1201C232.97 14.9601 232.906 14.6721 232.906 14.2561C232.906 13.8508 232.986 13.5735 233.146 13.4241C233.317 13.2641 233.621 13.1841 234.058 13.1841C234.506 13.1841 234.81 13.2641 234.97 13.4241C235.13 13.5735 235.21 13.8508 235.21 14.2561C235.21 14.7041 235.157 15.1255 235.05 15.5201C234.943 15.9148 234.762 16.3255 234.506 16.7521C234.261 17.1895 233.914 17.6908 233.466 18.2561H232.378ZM250.541 15.1201L248.781 2.32012H249.997L251.309 12.1761L252.685 6.35212H253.805L255.197 12.1761L256.493 2.32012H257.709L255.949 15.1201H254.797L253.245 8.84812L251.741 15.1201H250.541ZM262.839 15.3441C261.933 15.3441 261.213 15.1788 260.679 14.8481C260.146 14.5175 259.767 13.9735 259.543 13.2161C259.319 12.4588 259.207 11.4455 259.207 10.1761C259.207 8.89612 259.319 7.87745 259.543 7.12012C259.767 6.36278 260.146 5.82412 260.679 5.50412C261.213 5.17345 261.933 5.00812 262.839 5.00812C263.757 5.00812 264.477 5.17345 264.999 5.50412C265.533 5.82412 265.911 6.36278 266.135 7.12012C266.37 7.87745 266.487 8.89612 266.487 10.1761C266.487 11.4455 266.37 12.4588 266.135 13.2161C265.911 13.9735 265.533 14.5175 264.999 14.8481C264.477 15.1788 263.757 15.3441 262.839 15.3441ZM262.839 14.2401C263.469 14.2401 263.959 14.1175 264.311 13.8721C264.663 13.6161 264.914 13.1948 265.063 12.6081C265.213 12.0108 265.287 11.2001 265.287 10.1761C265.287 9.13078 265.213 8.31478 265.063 7.72812C264.914 7.14145 264.663 6.72545 264.311 6.48012C263.959 6.23478 263.469 6.11212 262.839 6.11212C262.221 6.11212 261.73 6.23478 261.367 6.48012C261.015 6.72545 260.765 7.14145 260.615 7.72812C260.477 8.31478 260.407 9.13078 260.407 10.1761C260.407 11.2001 260.477 12.0108 260.615 12.6081C260.765 13.1948 261.015 13.6161 261.367 13.8721C261.73 14.1175 262.221 14.2401 262.839 14.2401ZM269.441 15.1201V5.23212H270.641V6.73612C270.769 6.44812 270.956 6.17612 271.201 5.92012C271.457 5.65345 271.761 5.43478 272.113 5.26412C272.465 5.09345 272.849 5.00812 273.265 5.00812C273.809 5.00812 274.262 5.07745 274.625 5.21612C274.988 5.34412 275.297 5.56278 275.553 5.87212C275.809 6.18145 276.044 6.60812 276.257 7.15212L275.185 7.63212C275.046 7.23745 274.897 6.93345 274.737 6.72012C274.577 6.49612 274.38 6.34145 274.145 6.25612C273.921 6.16012 273.628 6.11212 273.265 6.11212C272.764 6.11212 272.342 6.22412 272.001 6.44812C271.67 6.66145 271.404 6.94412 271.201 7.29612C270.998 7.64812 270.854 8.03212 270.769 8.44812C270.684 8.85345 270.641 9.24278 270.641 9.61612V15.1201H269.441ZM283.707 15.3441C283.056 15.3441 282.539 15.2321 282.155 15.0081C281.781 14.7841 281.515 14.4108 281.355 13.8881C281.195 13.3548 281.115 12.6295 281.115 11.7121V3.42412H279.099V2.32012H282.315V11.7121C282.315 12.3521 282.357 12.8588 282.443 13.2321C282.528 13.5948 282.672 13.8561 282.875 14.0161C283.077 14.1655 283.355 14.2401 283.707 14.2401C283.931 14.2401 284.144 14.1921 284.347 14.0961C284.549 13.9895 284.811 13.7975 285.131 13.5201L285.819 14.5601C285.392 14.8481 285.024 15.0508 284.715 15.1681C284.416 15.2855 284.08 15.3441 283.707 15.3441ZM291.54 15.3441C290.634 15.3441 289.914 15.1788 289.38 14.8481C288.847 14.5175 288.468 13.9788 288.244 13.2321C288.02 12.4748 287.908 11.4615 287.908 10.1921C287.908 8.91212 288.02 7.89345 288.244 7.13612C288.468 6.36812 288.847 5.82412 289.38 5.50412C289.914 5.17345 290.634 5.00812 291.54 5.00812C292.095 5.00812 292.58 5.08812 292.996 5.24812C293.423 5.39745 293.759 5.65878 294.004 6.03212V2.32012H295.204V15.1201H294.004V14.5601C293.748 14.8481 293.412 15.0508 292.996 15.1681C292.58 15.2855 292.095 15.3441 291.54 15.3441ZM291.54 14.2401C292.031 14.2401 292.458 14.1975 292.82 14.1121C293.194 14.0268 293.482 13.8988 293.684 13.7281C293.898 13.5468 294.004 13.3068 294.004 13.0081V8.64012C294.004 7.73345 293.791 7.08812 293.364 6.70412C292.938 6.30945 292.33 6.11212 291.54 6.11212C290.922 6.11212 290.431 6.23478 290.068 6.48012C289.716 6.72545 289.466 7.14678 289.316 7.74412C289.178 8.33078 289.108 9.14678 289.108 10.1921C289.108 11.2161 289.178 12.0215 289.316 12.6081C289.466 13.1948 289.716 13.6161 290.068 13.8721C290.431 14.1175 290.922 14.2401 291.54 14.2401ZM300.622 11.2961L300.462 2.32012H301.982L301.822 11.2961H300.622ZM301.214 15.3441C300.777 15.3441 300.473 15.2695 300.302 15.1201C300.142 14.9601 300.062 14.6721 300.062 14.2561C300.062 13.8508 300.142 13.5735 300.302 13.4241C300.473 13.2641 300.777 13.1841 301.214 13.1841C301.662 13.1841 301.966 13.2641 302.126 13.4241C302.286 13.5735 302.366 13.8508 302.366 14.2561C302.366 14.6721 302.286 14.9601 302.126 15.1201C301.966 15.2695 301.662 15.3441 301.214 15.3441ZM307.128 7.82412C307.491 7.24812 307.773 6.77878 307.976 6.41612C308.189 6.04278 308.339 5.74412 308.424 5.52012C308.509 5.28545 308.552 5.08278 308.552 4.91212C308.211 4.91212 307.976 4.83745 307.848 4.68812C307.72 4.52812 307.656 4.24012 307.656 3.82412C307.656 3.41878 307.736 3.14145 307.896 2.99212C308.067 2.83212 308.371 2.75212 308.808 2.75212C309.256 2.75212 309.56 2.83212 309.72 2.99212C309.88 3.14145 309.96 3.41878 309.96 3.82412C309.96 4.27212 309.907 4.69345 309.8 5.08812C309.693 5.48278 309.512 5.89878 309.256 6.33612C309.011 6.76278 308.664 7.25878 308.216 7.82412H307.128ZM311.528 7.82412C311.891 7.24812 312.173 6.77878 312.376 6.41612C312.589 6.04278 312.739 5.74412 312.824 5.52012C312.909 5.28545 312.952 5.08278 312.952 4.91212C312.611 4.91212 312.376 4.83745 312.248 4.68812C312.12 4.52812 312.056 4.24012 312.056 3.82412C312.056 3.41878 312.136 3.14145 312.296 2.99212C312.467 2.83212 312.771 2.75212 313.208 2.75212C313.656 2.75212 313.96 2.83212 314.12 2.99212C314.28 3.14145 314.36 3.41878 314.36 3.82412C314.36 4.27212 314.307 4.69345 314.2 5.08812C314.093 5.48278 313.912 5.89878 313.656 6.33612C313.411 6.76278 313.064 7.25878 312.616 7.82412H311.528Z" fill="#CE9178"/>
</svg>
