<svg width="341" height="19" viewBox="0 0 341 19" fill="none" xmlns="http://www.w3.org/2000/svg">
<path d="M3.904 15.3441C3.17867 15.3441 2.57067 15.2801 2.08 15.1521C1.6 15.0348 1.19467 14.8321 0.864004 14.5441C0.544004 14.2561 0.256004 13.8668 3.93391e-06 13.3761L0.912004 12.5121C1.09334 12.9601 1.296 13.3121 1.52 13.5681C1.75467 13.8135 2.05867 13.9895 2.432 14.0961C2.80534 14.1921 3.296 14.2401 3.904 14.2401C4.576 14.2401 5.09867 14.1601 5.472 14.0001C5.84534 13.8295 6.10667 13.5521 6.256 13.1681C6.416 12.7841 6.496 12.2561 6.496 11.5841C6.496 11.0935 6.416 10.6988 6.256 10.4001C6.096 10.0908 5.824 9.82412 5.44 9.60012C5.056 9.37612 4.52267 9.15212 3.84 8.92812C2.96534 8.62945 2.272 8.33612 1.76 8.04812C1.248 7.74945 0.885337 7.39745 0.672004 6.99212C0.458671 6.58678 0.352004 6.08545 0.352004 5.48812C0.352004 4.63478 0.458671 3.96278 0.672004 3.47212C0.896004 2.98145 1.26934 2.62945 1.792 2.41612C2.31467 2.20278 3.01867 2.09612 3.904 2.09612C4.576 2.09612 5.136 2.14945 5.584 2.25612C6.032 2.35212 6.41067 2.52812 6.72 2.78412C7.02934 3.02945 7.30134 3.37078 7.536 3.80812L6.704 4.72012C6.52267 4.31478 6.32 4.00545 6.096 3.79212C5.88267 3.56812 5.60534 3.41345 5.264 3.32812C4.92267 3.24278 4.46934 3.20012 3.904 3.20012C3.296 3.20012 2.82134 3.26945 2.48 3.40812C2.13867 3.53612 1.89867 3.77078 1.76 4.11212C1.62134 4.44278 1.552 4.90145 1.552 5.48812C1.552 5.90412 1.62134 6.24545 1.76 6.51212C1.89867 6.77878 2.144 7.00812 2.496 7.20012C2.848 7.38145 3.33867 7.57345 3.968 7.77612C4.90667 8.06412 5.64267 8.37345 6.176 8.70412C6.72 9.02412 7.10934 9.41345 7.344 9.87212C7.57867 10.3201 7.696 10.8908 7.696 11.5841C7.696 12.5121 7.57867 13.2535 7.344 13.8081C7.10934 14.3521 6.71467 14.7468 6.16 14.9921C5.60534 15.2268 4.85334 15.3441 3.904 15.3441ZM10.8418 18.2561C10.5004 18.2561 10.2071 18.2135 9.96175 18.1281C9.71642 18.0535 9.44975 17.9201 9.16175 17.7281L9.64175 16.7201C9.92975 16.8908 10.1538 17.0028 10.3138 17.0561C10.4738 17.1201 10.6498 17.1521 10.8418 17.1521C11.2791 17.1521 11.6364 17.0881 11.9138 16.9601C12.2018 16.8321 12.4471 16.6081 12.6498 16.2881C12.8631 15.9788 13.0604 15.5415 13.2418 14.9761L10.0258 5.23212H11.2738L13.8818 13.3281L16.5378 5.23212H17.7858L14.4738 15.0241C14.2071 15.8241 13.9138 16.4588 13.5938 16.9281C13.2844 17.4081 12.9111 17.7495 12.4738 17.9521C12.0364 18.1548 11.4924 18.2561 10.8418 18.2561ZM22.6915 15.3441C22.1582 15.3441 21.7048 15.2855 21.3315 15.1681C20.9688 15.0615 20.6488 14.8748 20.3715 14.6081C20.0942 14.3308 19.8328 13.9681 19.5875 13.5201L20.5315 12.7361C20.7128 13.1201 20.8942 13.4241 21.0755 13.6481C21.2568 13.8615 21.4755 14.0161 21.7315 14.1121C21.9875 14.1975 22.3075 14.2401 22.6915 14.2401C23.4702 14.2401 24.0728 14.1815 24.4995 14.0641C24.9262 13.9468 25.2248 13.7548 25.3955 13.4881C25.5768 13.2108 25.6675 12.8375 25.6675 12.3681C25.6675 11.9308 25.5928 11.5948 25.4435 11.3601C25.2942 11.1148 25.0382 10.9281 24.6755 10.8001C24.3128 10.6721 23.8062 10.5655 23.1555 10.4801C22.3342 10.3735 21.6728 10.2188 21.1715 10.0161C20.6702 9.80278 20.3075 9.52012 20.0835 9.16812C19.8702 8.80545 19.7635 8.36278 19.7635 7.84012C19.7635 7.13612 19.8808 6.57612 20.1155 6.16012C20.3502 5.74412 20.7395 5.45078 21.2835 5.28012C21.8275 5.09878 22.5635 5.00812 23.4915 5.00812C24.0568 5.00812 24.5315 5.05612 24.9155 5.15212C25.2995 5.24812 25.6302 5.40812 25.9075 5.63212C26.1955 5.85612 26.4675 6.16545 26.7235 6.56012L25.8435 7.40812C25.6515 7.06678 25.4542 6.80545 25.2515 6.62412C25.0595 6.43212 24.8248 6.29878 24.5475 6.22412C24.2808 6.14945 23.9288 6.11212 23.4915 6.11212C22.8408 6.11212 22.3288 6.16545 21.9555 6.27212C21.5822 6.36812 21.3208 6.54412 21.1715 6.80012C21.0328 7.05612 20.9635 7.40278 20.9635 7.84012C20.9635 8.26678 21.1288 8.59745 21.4595 8.83212C21.7902 9.06678 22.3715 9.23745 23.2035 9.34412C24.1208 9.47212 24.8462 9.64812 25.3795 9.87212C25.9128 10.0855 26.2915 10.3895 26.5155 10.7841C26.7502 11.1788 26.8675 11.7068 26.8675 12.3681C26.8675 13.1041 26.7342 13.6908 26.4675 14.1281C26.2008 14.5548 25.7635 14.8641 25.1555 15.0561C24.5582 15.2481 23.7368 15.3441 22.6915 15.3441ZM33.7253 15.3441C33.0106 15.3441 32.4399 15.2215 32.0133 14.9761C31.5866 14.7201 31.2773 14.3255 31.0853 13.7921C30.9039 13.2481 30.8133 12.5388 30.8133 11.6641V6.25612H28.8293V5.15212H30.8133V2.32012H32.0133V5.15212H35.3413V6.25612H32.0133V11.6641C32.0133 12.6028 32.1359 13.2695 32.3813 13.6641C32.6373 14.0481 33.0853 14.2401 33.7253 14.2401C34.1093 14.2401 34.4079 14.2135 34.6213 14.1601C34.8453 14.0961 35.0159 13.9948 35.1333 13.8561C35.2613 13.7068 35.3679 13.4988 35.4533 13.2321L36.5893 13.6161C36.4399 14.0535 36.2533 14.4001 36.0293 14.6561C35.8053 14.9015 35.5066 15.0775 35.1333 15.1841C34.7706 15.2908 34.3013 15.3441 33.7253 15.3441ZM42.327 15.3441C41.335 15.3441 40.551 15.1895 39.975 14.8801C39.4097 14.5601 39.0097 14.0215 38.775 13.2641C38.5403 12.5068 38.423 11.4775 38.423 10.1761C38.423 8.86412 38.5403 7.83478 38.775 7.08812C39.0097 6.33078 39.4097 5.79745 39.975 5.48812C40.551 5.16812 41.335 5.00812 42.327 5.00812C43.2977 5.00812 44.0603 5.17345 44.615 5.50412C45.1697 5.82412 45.5643 6.37878 45.799 7.16812C46.0337 7.94678 46.151 9.01345 46.151 10.3681H38.887V9.26412H44.919C44.919 8.46412 44.839 7.83478 44.679 7.37612C44.5297 6.91745 44.263 6.59212 43.879 6.40012C43.5057 6.20812 42.9883 6.11212 42.327 6.11212C41.6337 6.11212 41.0897 6.23478 40.695 6.48012C40.311 6.71478 40.0337 7.11478 39.863 7.68012C39.703 8.24545 39.623 9.02945 39.623 10.0321C39.623 11.0881 39.703 11.9255 39.863 12.5441C40.0337 13.1521 40.311 13.5895 40.695 13.8561C41.0897 14.1121 41.6337 14.2401 42.327 14.2401C42.7217 14.2401 43.063 14.1975 43.351 14.1121C43.639 14.0268 43.9057 13.8881 44.151 13.6961C44.407 13.4935 44.663 13.2161 44.919 12.8641L45.879 13.5041C45.559 13.9735 45.2337 14.3415 44.903 14.6081C44.583 14.8748 44.215 15.0615 43.799 15.1681C43.3937 15.2855 42.903 15.3441 42.327 15.3441ZM47.7928 15.1201V5.23212H48.9928V5.77612C49.2168 5.48812 49.4301 5.29078 49.6328 5.18412C49.8354 5.06678 50.0968 5.00812 50.4168 5.00812C50.8434 5.00812 51.1688 5.09878 51.3928 5.28012C51.6168 5.45078 51.8141 5.77078 51.9848 6.24012C52.2621 5.77078 52.5341 5.45078 52.8008 5.28012C53.0781 5.09878 53.4408 5.00812 53.8888 5.00812C54.4114 5.00812 54.8221 5.12545 55.1208 5.36012C55.4301 5.58412 55.6434 5.97345 55.7608 6.52812C55.8888 7.08278 55.9528 7.84012 55.9528 8.80012V15.1201H54.7528V8.80012C54.7528 8.13878 54.7261 7.61612 54.6728 7.23212C54.6194 6.84812 54.5288 6.57612 54.4008 6.41612C54.2834 6.24545 54.1128 6.16012 53.8888 6.16012C53.5368 6.16012 53.2541 6.24012 53.0408 6.40012C52.8381 6.56012 52.6941 6.83212 52.6088 7.21612C52.5234 7.58945 52.4808 8.10145 52.4808 8.75212V15.1201H51.2808V8.89612C51.2808 8.21345 51.2541 7.67478 51.2008 7.28012C51.1474 6.87478 51.0568 6.58678 50.9288 6.41612C50.8008 6.24545 50.6301 6.16012 50.4168 6.16012C50.0541 6.16012 49.7661 6.24012 49.5528 6.40012C49.3501 6.56012 49.2061 6.83212 49.1208 7.21612C49.0354 7.58945 48.9928 8.10145 48.9928 8.75212V15.1201H47.7928ZM71.0603 15.3441C70.1536 15.3441 69.4336 15.1788 68.9003 14.8481C68.3669 14.5175 67.9883 13.9735 67.7643 13.2161C67.5403 12.4588 67.4283 11.4455 67.4283 10.1761C67.4283 8.89612 67.5403 7.87745 67.7643 7.12012C67.9883 6.36278 68.3669 5.82412 68.9003 5.50412C69.4336 5.17345 70.1536 5.00812 71.0603 5.00812C71.9776 5.00812 72.6976 5.17345 73.2203 5.50412C73.7536 5.82412 74.1323 6.36278 74.3563 7.12012C74.5909 7.87745 74.7083 8.89612 74.7083 10.1761C74.7083 11.4455 74.5909 12.4588 74.3563 13.2161C74.1323 13.9735 73.7536 14.5175 73.2203 14.8481C72.6976 15.1788 71.9776 15.3441 71.0603 15.3441ZM71.0603 14.2401C71.6896 14.2401 72.1803 14.1175 72.5323 13.8721C72.8843 13.6161 73.1349 13.1948 73.2843 12.6081C73.4336 12.0108 73.5083 11.2001 73.5083 10.1761C73.5083 9.13078 73.4336 8.31478 73.2843 7.72812C73.1349 7.14145 72.8843 6.72545 72.5323 6.48012C72.1803 6.23478 71.6896 6.11212 71.0603 6.11212C70.4416 6.11212 69.9509 6.23478 69.5883 6.48012C69.2363 6.72545 68.9856 7.14145 68.8363 7.72812C68.6976 8.31478 68.6283 9.13078 68.6283 10.1761C68.6283 11.2001 68.6976 12.0108 68.8363 12.6081C68.9856 13.1948 69.2363 13.6161 69.5883 13.8721C69.9509 14.1175 70.4416 14.2401 71.0603 14.2401ZM80.382 15.3441C79.5927 15.3441 78.9687 15.2268 78.51 14.9921C78.0513 14.7575 77.7207 14.3628 77.518 13.8081C77.326 13.2535 77.23 12.5068 77.23 11.5681V5.23212H78.43V11.5681C78.43 12.2615 78.4887 12.8001 78.606 13.1841C78.7233 13.5681 78.9207 13.8401 79.198 14.0001C79.486 14.1601 79.8807 14.2401 80.382 14.2401C81.086 14.2401 81.63 14.1761 82.014 14.0481C82.398 13.9095 82.67 13.6801 82.83 13.3601C82.99 13.0295 83.07 12.5761 83.07 12.0001V5.23212H84.27V15.1201H83.07V14.4801C82.878 14.6935 82.6593 14.8641 82.414 14.9921C82.1793 15.1095 81.8967 15.1948 81.566 15.2481C81.2353 15.3121 80.8407 15.3441 80.382 15.3441ZM91.2878 15.3441C90.5731 15.3441 90.0024 15.2215 89.5758 14.9761C89.1491 14.7201 88.8398 14.3255 88.6478 13.7921C88.4664 13.2481 88.3758 12.5388 88.3758 11.6641V6.25612H86.3918V5.15212H88.3758V2.32012H89.5758V5.15212H92.9038V6.25612H89.5758V11.6641C89.5758 12.6028 89.6984 13.2695 89.9438 13.6641C90.1998 14.0481 90.6478 14.2401 91.2878 14.2401C91.6718 14.2401 91.9704 14.2135 92.1838 14.1601C92.4078 14.0961 92.5784 13.9948 92.6958 13.8561C92.8238 13.7068 92.9304 13.4988 93.0158 13.2321L94.1518 13.6161C94.0024 14.0535 93.8158 14.4001 93.5918 14.6561C93.3678 14.9015 93.0691 15.0775 92.6958 15.1841C92.3331 15.2908 91.8638 15.3441 91.2878 15.3441Z" fill="#9CDCFE"/>
<path d="M61.4665 15.3441C61.0292 15.3441 60.7252 15.2695 60.5545 15.1201C60.3945 14.9601 60.3145 14.6721 60.3145 14.2561C60.3145 13.8508 60.3945 13.5735 60.5545 13.4241C60.7252 13.2641 61.0292 13.1841 61.4665 13.1841C61.9145 13.1841 62.2185 13.2641 62.3785 13.4241C62.5385 13.5735 62.6185 13.8508 62.6185 14.2561C62.6185 14.6721 62.5385 14.9601 62.3785 15.1201C62.2185 15.2695 61.9145 15.3441 61.4665 15.3441ZM99.8415 15.3441C99.4042 15.3441 99.1002 15.2695 98.9295 15.1201C98.7695 14.9601 98.6895 14.6721 98.6895 14.2561C98.6895 13.8508 98.7695 13.5735 98.9295 13.4241C99.1002 13.2641 99.4042 13.1841 99.8415 13.1841C100.29 13.1841 100.594 13.2641 100.754 13.4241C100.914 13.5735 100.994 13.8508 100.994 14.2561C100.994 14.6721 100.914 14.9601 100.754 15.1201C100.594 15.2695 100.29 15.3441 99.8415 15.3441ZM338.005 18.2561C338.368 17.6801 338.651 17.2055 338.853 16.8321C339.067 16.4695 339.216 16.1708 339.301 15.9361C339.387 15.7121 339.429 15.5148 339.429 15.3441C339.088 15.3441 338.853 15.2695 338.725 15.1201C338.597 14.9601 338.533 14.6721 338.533 14.2561C338.533 13.8508 338.613 13.5735 338.773 13.4241C338.944 13.2641 339.248 13.1841 339.685 13.1841C340.133 13.1841 340.437 13.2641 340.597 13.4241C340.757 13.5735 340.837 13.8508 340.837 14.2561C340.837 14.7041 340.784 15.1255 340.677 15.5201C340.571 15.9148 340.389 16.3255 340.133 16.7521C339.888 17.1895 339.541 17.6908 339.093 18.2561H338.005ZM339.685 7.20012C339.248 7.20012 338.944 7.12545 338.773 6.97612C338.613 6.81612 338.533 6.52812 338.533 6.11212C338.533 5.70678 338.613 5.42945 338.773 5.28012C338.944 5.12012 339.248 5.04012 339.685 5.04012C340.133 5.04012 340.437 5.12012 340.597 5.28012C340.757 5.42945 340.837 5.70678 340.837 6.11212C340.837 6.52812 340.757 6.81612 340.597 6.97612C340.437 7.12545 340.133 7.20012 339.685 7.20012Z" fill="white"/>
<path d="M105.899 18.0321V5.23212H107.099V5.77612C107.355 5.48812 107.691 5.29078 108.107 5.18412C108.523 5.06678 109.003 5.00812 109.547 5.00812C110.465 5.00812 111.185 5.17345 111.707 5.50412C112.241 5.82412 112.619 6.36278 112.843 7.12012C113.078 7.86678 113.195 8.88012 113.195 10.1601C113.195 11.4401 113.078 12.4588 112.843 13.2161C112.619 13.9735 112.241 14.5175 111.707 14.8481C111.185 15.1788 110.465 15.3441 109.547 15.3441C108.993 15.3441 108.507 15.2641 108.091 15.1041C107.675 14.9441 107.345 14.6775 107.099 14.3041V18.0321H105.899ZM109.547 14.2401C110.177 14.2401 110.667 14.1175 111.019 13.8721C111.371 13.6161 111.622 13.1895 111.771 12.5921C111.921 11.9948 111.995 11.1841 111.995 10.1601C111.995 9.12545 111.921 8.31478 111.771 7.72812C111.622 7.14145 111.371 6.72545 111.019 6.48012C110.667 6.23478 110.177 6.11212 109.547 6.11212C109.067 6.11212 108.641 6.15478 108.267 6.24012C107.905 6.31478 107.617 6.44278 107.403 6.62412C107.201 6.80545 107.099 7.04012 107.099 7.32812V11.6961C107.099 12.6028 107.313 13.2535 107.739 13.6481C108.166 14.0428 108.769 14.2401 109.547 14.2401ZM116.037 15.1201V5.23212H117.237V6.73612C117.365 6.44812 117.552 6.17612 117.797 5.92012C118.053 5.65345 118.357 5.43478 118.709 5.26412C119.061 5.09345 119.445 5.00812 119.861 5.00812C120.405 5.00812 120.858 5.07745 121.221 5.21612C121.584 5.34412 121.893 5.56278 122.149 5.87212C122.405 6.18145 122.64 6.60812 122.853 7.15212L121.781 7.63212C121.642 7.23745 121.493 6.93345 121.333 6.72012C121.173 6.49612 120.976 6.34145 120.741 6.25612C120.517 6.16012 120.224 6.11212 119.861 6.11212C119.36 6.11212 118.938 6.22412 118.597 6.44812C118.266 6.66145 118 6.94412 117.797 7.29612C117.594 7.64812 117.45 8.03212 117.365 8.44812C117.28 8.85345 117.237 9.24278 117.237 9.61612V15.1201H116.037ZM128.447 15.1201V5.58412L129.199 6.33612H126.431V5.23212H129.647V15.1201H128.447ZM125.647 15.1201V14.0161H132.447V15.1201H125.647ZM128.703 3.40812C128.297 3.40812 128.015 3.33878 127.855 3.20012C127.705 3.05078 127.631 2.77878 127.631 2.38412C127.631 2.00012 127.705 1.73878 127.855 1.60012C128.015 1.45078 128.297 1.37612 128.703 1.37612C129.119 1.37612 129.401 1.45078 129.551 1.60012C129.711 1.73878 129.791 2.00012 129.791 2.38412C129.791 2.77878 129.711 3.05078 129.551 3.20012C129.401 3.33878 129.119 3.40812 128.703 3.40812ZM134.793 15.1201V5.23212H135.993V5.95212C136.281 5.63212 136.627 5.39745 137.033 5.24812C137.438 5.08812 137.982 5.00812 138.665 5.00812C139.475 5.00812 140.11 5.12545 140.569 5.36012C141.027 5.59478 141.353 5.99478 141.545 6.56012C141.737 7.11478 141.833 7.87745 141.833 8.84812V15.1201H140.633V8.84812C140.633 8.15478 140.569 7.61078 140.441 7.21612C140.323 6.81078 140.121 6.52812 139.833 6.36812C139.555 6.19745 139.166 6.11212 138.665 6.11212C137.961 6.11212 137.411 6.18145 137.017 6.32012C136.633 6.45878 136.366 6.71478 136.217 7.08812C136.067 7.45078 135.993 7.97878 135.993 8.67212V15.1201H134.793ZM148.85 15.3441C148.136 15.3441 147.565 15.2215 147.138 14.9761C146.712 14.7201 146.402 14.3255 146.21 13.7921C146.029 13.2481 145.938 12.5388 145.938 11.6641V6.25612H143.954V5.15212H145.938V2.32012H147.138V5.15212H150.466V6.25612H147.138V11.6641C147.138 12.6028 147.261 13.2695 147.506 13.6641C147.762 14.0481 148.21 14.2401 148.85 14.2401C149.234 14.2401 149.533 14.2135 149.746 14.1601C149.97 14.0961 150.141 13.9948 150.258 13.8561C150.386 13.7068 150.493 13.4988 150.578 13.2321L151.714 13.6161C151.565 14.0535 151.378 14.4001 151.154 14.6561C150.93 14.9015 150.632 15.0775 150.258 15.1841C149.896 15.2908 149.426 15.3441 148.85 15.3441ZM159.084 15.3441C158.433 15.3441 157.916 15.2321 157.532 15.0081C157.159 14.7841 156.892 14.4108 156.732 13.8881C156.572 13.3548 156.492 12.6295 156.492 11.7121V3.42412H154.476V2.32012H157.692V11.7121C157.692 12.3521 157.735 12.8588 157.82 13.2321C157.905 13.5948 158.049 13.8561 158.252 14.0161C158.455 14.1655 158.732 14.2401 159.084 14.2401C159.308 14.2401 159.521 14.1921 159.724 14.0961C159.927 13.9895 160.188 13.7975 160.508 13.5201L161.196 14.5601C160.769 14.8481 160.401 15.0508 160.092 15.1681C159.793 15.2855 159.457 15.3441 159.084 15.3441ZM163.574 15.1201V5.23212H164.774V5.95212C165.062 5.63212 165.408 5.39745 165.814 5.24812C166.219 5.08812 166.763 5.00812 167.446 5.00812C168.256 5.00812 168.891 5.12545 169.35 5.36012C169.808 5.59478 170.134 5.99478 170.326 6.56012C170.518 7.11478 170.614 7.87745 170.614 8.84812V15.1201H169.414V8.84812C169.414 8.15478 169.35 7.61078 169.222 7.21612C169.104 6.81078 168.902 6.52812 168.614 6.36812C168.336 6.19745 167.947 6.11212 167.446 6.11212C166.742 6.11212 166.192 6.18145 165.798 6.32012C165.414 6.45878 165.147 6.71478 164.998 7.08812C164.848 7.45078 164.774 7.97878 164.774 8.67212V15.1201H163.574Z" fill="#DCDCAA"/>
<path d="M179.04 17.4401C178.08 17.4401 177.242 17.0775 176.528 16.3521C175.813 15.6268 175.258 14.6081 174.864 13.2961C174.469 11.9841 174.272 10.4588 174.272 8.72012C174.272 6.97078 174.469 5.44545 174.864 4.14412C175.258 2.83212 175.813 1.81345 176.528 1.08812C177.242 0.362783 178.08 0.000116348 179.04 0.000116348V1.10412C178.325 1.10412 177.701 1.42412 177.168 2.06412C176.634 2.69345 176.218 3.57878 175.92 4.72012C175.621 5.86145 175.472 7.19478 175.472 8.72012C175.472 10.2455 175.621 11.5788 175.92 12.7201C176.218 13.8615 176.634 14.7468 177.168 15.3761C177.701 16.0161 178.325 16.3361 179.04 16.3361V17.4401ZM327.66 17.4401V16.3361C328.374 16.3361 328.998 16.0161 329.532 15.3761C330.065 14.7468 330.481 13.8615 330.78 12.7201C331.078 11.5788 331.228 10.2455 331.228 8.72012C331.228 7.19478 331.078 5.86145 330.78 4.72012C330.481 3.57878 330.065 2.69345 329.532 2.06412C328.998 1.42412 328.374 1.10412 327.66 1.10412V0.000116348C328.609 0.000116348 329.441 0.362783 330.156 1.08812C330.87 1.81345 331.425 2.83212 331.82 4.14412C332.225 5.44545 332.428 6.97078 332.428 8.72012C332.428 10.4588 332.225 11.9841 331.82 13.2961C331.425 14.6081 330.87 15.6268 330.156 16.3521C329.441 17.0775 328.609 17.4401 327.66 17.4401Z" fill="#1B8FFF"/>
<path d="M189.865 2.09612C189.513 2.66145 189.231 3.13078 189.017 3.50412C188.815 3.86678 188.671 4.16545 188.585 4.40012C188.5 4.63478 188.457 4.83212 188.457 4.99212C188.788 4.99212 189.017 5.07212 189.145 5.23212C189.273 5.39212 189.337 5.67478 189.337 6.08012C189.337 6.48545 189.257 6.76812 189.097 6.92812C188.937 7.08812 188.633 7.16812 188.185 7.16812C187.748 7.16812 187.444 7.08812 187.273 6.92812C187.113 6.76812 187.033 6.48545 187.033 6.08012C187.033 5.63212 187.087 5.21078 187.193 4.81612C187.3 4.42145 187.481 4.01078 187.737 3.58412C188.004 3.14678 188.356 2.65078 188.793 2.09612H189.865ZM185.465 2.09612C185.113 2.66145 184.831 3.13078 184.617 3.50412C184.415 3.86678 184.271 4.16545 184.185 4.40012C184.1 4.63478 184.057 4.83212 184.057 4.99212C184.388 4.99212 184.617 5.07212 184.745 5.23212C184.873 5.39212 184.937 5.67478 184.937 6.08012C184.937 6.48545 184.857 6.76812 184.697 6.92812C184.537 7.08812 184.233 7.16812 183.785 7.16812C183.348 7.16812 183.044 7.08812 182.873 6.92812C182.713 6.76812 182.633 6.48545 182.633 6.08012C182.633 5.63212 182.687 5.21078 182.793 4.81612C182.9 4.42145 183.081 4.01078 183.337 3.58412C183.604 3.14678 183.956 2.65078 184.393 2.09612H185.465ZM198.243 15.1201V2.32012H199.443V15.1201H198.243ZM192.131 15.1201V2.32012H193.331V15.1201H192.131ZM192.595 8.89612V7.79212H198.979V8.89612H192.595ZM205.421 15.3441C204.429 15.3441 203.645 15.1895 203.069 14.8801C202.503 14.5601 202.103 14.0215 201.869 13.2641C201.634 12.5068 201.517 11.4775 201.517 10.1761C201.517 8.86412 201.634 7.83478 201.869 7.08812C202.103 6.33078 202.503 5.79745 203.069 5.48812C203.645 5.16812 204.429 5.00812 205.421 5.00812C206.391 5.00812 207.154 5.17345 207.709 5.50412C208.263 5.82412 208.658 6.37878 208.893 7.16812C209.127 7.94678 209.245 9.01345 209.245 10.3681H201.981V9.26412H208.013C208.013 8.46412 207.933 7.83478 207.773 7.37612C207.623 6.91745 207.357 6.59212 206.973 6.40012C206.599 6.20812 206.082 6.11212 205.421 6.11212C204.727 6.11212 204.183 6.23478 203.789 6.48012C203.405 6.71478 203.127 7.11478 202.957 7.68012C202.797 8.24545 202.717 9.02945 202.717 10.0321C202.717 11.0881 202.797 11.9255 202.957 12.5441C203.127 13.1521 203.405 13.5895 203.789 13.8561C204.183 14.1121 204.727 14.2401 205.421 14.2401C205.815 14.2401 206.157 14.1975 206.445 14.1121C206.733 14.0268 206.999 13.8881 207.245 13.6961C207.501 13.4935 207.757 13.2161 208.013 12.8641L208.973 13.5041C208.653 13.9735 208.327 14.3415 207.997 14.6081C207.677 14.8748 207.309 15.0615 206.893 15.1681C206.487 15.2855 205.997 15.3441 205.421 15.3441ZM216.647 15.3441C215.996 15.3441 215.479 15.2321 215.095 15.0081C214.721 14.7841 214.455 14.4108 214.295 13.8881C214.135 13.3548 214.055 12.6295 214.055 11.7121V3.42412H212.039V2.32012H215.255V11.7121C215.255 12.3521 215.297 12.8588 215.383 13.2321C215.468 13.5948 215.612 13.8561 215.815 14.0161C216.017 14.1655 216.295 14.2401 216.647 14.2401C216.871 14.2401 217.084 14.1921 217.287 14.0961C217.489 13.9895 217.751 13.7975 218.071 13.5201L218.759 14.5601C218.332 14.8481 217.964 15.0508 217.655 15.1681C217.356 15.2855 217.02 15.3441 216.647 15.3441ZM226.24 15.3441C225.59 15.3441 225.072 15.2321 224.688 15.0081C224.315 14.7841 224.048 14.4108 223.888 13.8881C223.728 13.3548 223.648 12.6295 223.648 11.7121V3.42412H221.632V2.32012H224.848V11.7121C224.848 12.3521 224.891 12.8588 224.976 13.2321C225.062 13.5948 225.206 13.8561 225.408 14.0161C225.611 14.1655 225.888 14.2401 226.24 14.2401C226.464 14.2401 226.678 14.1921 226.88 14.0961C227.083 13.9895 227.344 13.7975 227.664 13.5201L228.352 14.5601C227.926 14.8481 227.558 15.0508 227.248 15.1681C226.95 15.2855 226.614 15.3441 226.24 15.3441ZM234.154 15.3441C233.247 15.3441 232.527 15.1788 231.994 14.8481C231.461 14.5175 231.082 13.9735 230.858 13.2161C230.634 12.4588 230.522 11.4455 230.522 10.1761C230.522 8.89612 230.634 7.87745 230.858 7.12012C231.082 6.36278 231.461 5.82412 231.994 5.50412C232.527 5.17345 233.247 5.00812 234.154 5.00812C235.071 5.00812 235.791 5.17345 236.314 5.50412C236.847 5.82412 237.226 6.36278 237.45 7.12012C237.685 7.87745 237.802 8.89612 237.802 10.1761C237.802 11.4455 237.685 12.4588 237.45 13.2161C237.226 13.9735 236.847 14.5175 236.314 14.8481C235.791 15.1788 235.071 15.3441 234.154 15.3441ZM234.154 14.2401C234.783 14.2401 235.274 14.1175 235.626 13.8721C235.978 13.6161 236.229 13.1948 236.378 12.6081C236.527 12.0108 236.602 11.2001 236.602 10.1761C236.602 9.13078 236.527 8.31478 236.378 7.72812C236.229 7.14145 235.978 6.72545 235.626 6.48012C235.274 6.23478 234.783 6.11212 234.154 6.11212C233.535 6.11212 233.045 6.23478 232.682 6.48012C232.33 6.72545 232.079 7.14145 231.93 7.72812C231.791 8.31478 231.722 9.13078 231.722 10.1761C231.722 11.2001 231.791 12.0108 231.93 12.6081C232.079 13.1948 232.33 13.6161 232.682 13.8721C233.045 14.1175 233.535 14.2401 234.154 14.2401ZM242.068 18.2561C242.43 17.6801 242.713 17.2055 242.916 16.8321C243.129 16.4695 243.278 16.1708 243.364 15.9361C243.449 15.7121 243.492 15.5148 243.492 15.3441C243.15 15.3441 242.916 15.2695 242.788 15.1201C242.66 14.9601 242.596 14.6721 242.596 14.2561C242.596 13.8508 242.676 13.5735 242.836 13.4241C243.006 13.2641 243.31 13.1841 243.748 13.1841C244.196 13.1841 244.5 13.2641 244.66 13.4241C244.82 13.5735 244.9 13.8508 244.9 14.2561C244.9 14.7041 244.846 15.1255 244.74 15.5201C244.633 15.9148 244.452 16.3255 244.196 16.7521C243.95 17.1895 243.604 17.6908 243.156 18.2561H242.068ZM260.231 15.1201L258.471 2.32012H259.687L260.999 12.1761L262.375 6.35212H263.495L264.887 12.1761L266.183 2.32012H267.399L265.639 15.1201H264.487L262.935 8.84812L261.431 15.1201H260.231ZM272.529 15.3441C271.622 15.3441 270.902 15.1788 270.369 14.8481C269.836 14.5175 269.457 13.9735 269.233 13.2161C269.009 12.4588 268.897 11.4455 268.897 10.1761C268.897 8.89612 269.009 7.87745 269.233 7.12012C269.457 6.36278 269.836 5.82412 270.369 5.50412C270.902 5.17345 271.622 5.00812 272.529 5.00812C273.446 5.00812 274.166 5.17345 274.689 5.50412C275.222 5.82412 275.601 6.36278 275.825 7.12012C276.06 7.87745 276.177 8.89612 276.177 10.1761C276.177 11.4455 276.06 12.4588 275.825 13.2161C275.601 13.9735 275.222 14.5175 274.689 14.8481C274.166 15.1788 273.446 15.3441 272.529 15.3441ZM272.529 14.2401C273.158 14.2401 273.649 14.1175 274.001 13.8721C274.353 13.6161 274.604 13.1948 274.753 12.6081C274.902 12.0108 274.977 11.2001 274.977 10.1761C274.977 9.13078 274.902 8.31478 274.753 7.72812C274.604 7.14145 274.353 6.72545 274.001 6.48012C273.649 6.23478 273.158 6.11212 272.529 6.11212C271.91 6.11212 271.42 6.23478 271.057 6.48012C270.705 6.72545 270.454 7.14145 270.305 7.72812C270.166 8.31478 270.097 9.13078 270.097 10.1761C270.097 11.2001 270.166 12.0108 270.305 12.6081C270.454 13.1948 270.705 13.6161 271.057 13.8721C271.42 14.1175 271.91 14.2401 272.529 14.2401ZM279.131 15.1201V5.23212H280.331V6.73612C280.459 6.44812 280.645 6.17612 280.891 5.92012C281.147 5.65345 281.451 5.43478 281.803 5.26412C282.155 5.09345 282.539 5.00812 282.955 5.00812C283.499 5.00812 283.952 5.07745 284.315 5.21612C284.677 5.34412 284.987 5.56278 285.243 5.87212C285.499 6.18145 285.733 6.60812 285.947 7.15212L284.875 7.63212C284.736 7.23745 284.587 6.93345 284.427 6.72012C284.267 6.49612 284.069 6.34145 283.835 6.25612C283.611 6.16012 283.317 6.11212 282.955 6.11212C282.453 6.11212 282.032 6.22412 281.691 6.44812C281.36 6.66145 281.093 6.94412 280.891 7.29612C280.688 7.64812 280.544 8.03212 280.459 8.44812C280.373 8.85345 280.331 9.24278 280.331 9.61612V15.1201H279.131ZM293.397 15.3441C292.746 15.3441 292.229 15.2321 291.845 15.0081C291.471 14.7841 291.205 14.4108 291.045 13.8881C290.885 13.3548 290.805 12.6295 290.805 11.7121V3.42412H288.789V2.32012H292.005V11.7121C292.005 12.3521 292.047 12.8588 292.133 13.2321C292.218 13.5948 292.362 13.8561 292.565 14.0161C292.767 14.1655 293.045 14.2401 293.397 14.2401C293.621 14.2401 293.834 14.1921 294.037 14.0961C294.239 13.9895 294.501 13.7975 294.821 13.5201L295.509 14.5601C295.082 14.8481 294.714 15.0508 294.405 15.1681C294.106 15.2855 293.77 15.3441 293.397 15.3441ZM301.23 15.3441C300.324 15.3441 299.604 15.1788 299.07 14.8481C298.537 14.5175 298.158 13.9788 297.934 13.2321C297.71 12.4748 297.598 11.4615 297.598 10.1921C297.598 8.91212 297.71 7.89345 297.934 7.13612C298.158 6.36812 298.537 5.82412 299.07 5.50412C299.604 5.17345 300.324 5.00812 301.23 5.00812C301.785 5.00812 302.27 5.08812 302.686 5.24812C303.113 5.39745 303.449 5.65878 303.694 6.03212V2.32012H304.894V15.1201H303.694V14.5601C303.438 14.8481 303.102 15.0508 302.686 15.1681C302.27 15.2855 301.785 15.3441 301.23 15.3441ZM301.23 14.2401C301.721 14.2401 302.148 14.1975 302.51 14.1121C302.884 14.0268 303.172 13.8988 303.374 13.7281C303.588 13.5468 303.694 13.3068 303.694 13.0081V8.64012C303.694 7.73345 303.481 7.08812 303.054 6.70412C302.628 6.30945 302.02 6.11212 301.23 6.11212C300.612 6.11212 300.121 6.23478 299.758 6.48012C299.406 6.72545 299.156 7.14678 299.006 7.74412C298.868 8.33078 298.798 9.14678 298.798 10.1921C298.798 11.2161 298.868 12.0215 299.006 12.6081C299.156 13.1948 299.406 13.6161 299.758 13.8721C300.121 14.1175 300.612 14.2401 301.23 14.2401ZM310.312 11.2961L310.152 2.32012H311.672L311.512 11.2961H310.312ZM310.904 15.3441C310.467 15.3441 310.163 15.2695 309.992 15.1201C309.832 14.9601 309.752 14.6721 309.752 14.2561C309.752 13.8508 309.832 13.5735 309.992 13.4241C310.163 13.2641 310.467 13.1841 310.904 13.1841C311.352 13.1841 311.656 13.2641 311.816 13.4241C311.976 13.5735 312.056 13.8508 312.056 14.2561C312.056 14.6721 311.976 14.9601 311.816 15.1201C311.656 15.2695 311.352 15.3441 310.904 15.3441ZM316.818 7.82412C317.18 7.24812 317.463 6.77878 317.666 6.41612C317.879 6.04278 318.028 5.74412 318.114 5.52012C318.199 5.28545 318.242 5.08278 318.242 4.91212C317.9 4.91212 317.666 4.83745 317.538 4.68812C317.41 4.52812 317.346 4.24012 317.346 3.82412C317.346 3.41878 317.426 3.14145 317.586 2.99212C317.756 2.83212 318.06 2.75212 318.498 2.75212C318.946 2.75212 319.25 2.83212 319.41 2.99212C319.57 3.14145 319.65 3.41878 319.65 3.82412C319.65 4.27212 319.596 4.69345 319.49 5.08812C319.383 5.48278 319.202 5.89878 318.946 6.33612C318.7 6.76278 318.354 7.25878 317.906 7.82412H316.818ZM321.218 7.82412C321.58 7.24812 321.863 6.77878 322.066 6.41612C322.279 6.04278 322.428 5.74412 322.514 5.52012C322.599 5.28545 322.642 5.08278 322.642 4.91212C322.3 4.91212 322.066 4.83745 321.938 4.68812C321.81 4.52812 321.746 4.24012 321.746 3.82412C321.746 3.41878 321.826 3.14145 321.986 2.99212C322.156 2.83212 322.46 2.75212 322.898 2.75212C323.346 2.75212 323.65 2.83212 323.81 2.99212C323.97 3.14145 324.05 3.41878 324.05 3.82412C324.05 4.27212 323.996 4.69345 323.89 5.08812C323.783 5.48278 323.602 5.89878 323.346 6.33612C323.1 6.76278 322.754 7.25878 322.306 7.82412H321.218Z" fill="#CE9178"/>
</svg>
