<svg width="274" height="19" viewBox="0 0 274 19" fill="none" xmlns="http://www.w3.org/2000/svg">
<path d="M3.95201 15.3441C2.96001 15.3441 2.17601 15.1788 1.60001 14.8481C1.02401 14.5175 0.613347 13.9735 0.368014 13.2161C0.12268 12.4588 1.37091e-05 11.4455 1.37091e-05 10.1761C1.37091e-05 8.89612 0.12268 7.87745 0.368014 7.12012C0.624014 6.36278 1.04001 5.82412 1.61601 5.50412C2.20268 5.17345 3.00268 5.00812 4.01601 5.00812C4.57068 5.00812 5.04001 5.06678 5.42401 5.18412C5.81868 5.29078 6.17068 5.48278 6.48001 5.76012C6.80001 6.02678 7.10935 6.40012 7.40801 6.88012L6.40001 7.47212C6.16535 7.12012 5.94135 6.84812 5.72801 6.65612C5.51468 6.45345 5.27468 6.31478 5.00801 6.24012C4.74135 6.15478 4.41068 6.11212 4.01601 6.11212C3.30135 6.11212 2.73601 6.23478 2.32001 6.48012C1.91468 6.72545 1.62668 7.14145 1.45601 7.72812C1.28535 8.31478 1.20001 9.13078 1.20001 10.1761C1.20001 11.2001 1.28001 12.0108 1.44001 12.6081C1.61068 13.1948 1.89335 13.6161 2.28801 13.8721C2.69335 14.1175 3.24801 14.2401 3.95201 14.2401C4.34668 14.2401 4.67735 14.1975 4.94401 14.1121C5.22135 14.0268 5.47201 13.8881 5.69601 13.6961C5.93068 13.4935 6.17068 13.2108 6.41601 12.8481L7.40801 13.4561C7.09868 13.9255 6.78401 14.2988 6.46401 14.5761C6.14401 14.8535 5.78668 15.0508 5.39201 15.1681C4.99735 15.2855 4.51735 15.3441 3.95201 15.3441ZM13.2578 15.3441C12.3511 15.3441 11.6311 15.1788 11.0978 14.8481C10.5644 14.5175 10.1858 13.9735 9.96176 13.2161C9.73776 12.4588 9.62576 11.4455 9.62576 10.1761C9.62576 8.89612 9.73776 7.87745 9.96176 7.12012C10.1858 6.36278 10.5644 5.82412 11.0978 5.50412C11.6311 5.17345 12.3511 5.00812 13.2578 5.00812C14.1751 5.00812 14.8951 5.17345 15.4178 5.50412C15.9511 5.82412 16.3298 6.36278 16.5538 7.12012C16.7884 7.87745 16.9058 8.89612 16.9058 10.1761C16.9058 11.4455 16.7884 12.4588 16.5538 13.2161C16.3298 13.9735 15.9511 14.5175 15.4178 14.8481C14.8951 15.1788 14.1751 15.3441 13.2578 15.3441ZM13.2578 14.2401C13.8871 14.2401 14.3778 14.1175 14.7298 13.8721C15.0818 13.6161 15.3324 13.1948 15.4818 12.6081C15.6311 12.0108 15.7058 11.2001 15.7058 10.1761C15.7058 9.13078 15.6311 8.31478 15.4818 7.72812C15.3324 7.14145 15.0818 6.72545 14.7298 6.48012C14.3778 6.23478 13.8871 6.11212 13.2578 6.11212C12.6391 6.11212 12.1484 6.23478 11.7858 6.48012C11.4338 6.72545 11.1831 7.14145 11.0338 7.72812C10.8951 8.31478 10.8258 9.13078 10.8258 10.1761C10.8258 11.2001 10.8951 12.0108 11.0338 12.6081C11.1831 13.1948 11.4338 13.6161 11.7858 13.8721C12.1484 14.1175 12.6391 14.2401 13.2578 14.2401ZM19.4275 15.1201V5.23212H20.6275V5.95212C20.9155 5.63212 21.2622 5.39745 21.6675 5.24812C22.0728 5.08812 22.6168 5.00812 23.2995 5.00812C24.1102 5.00812 24.7448 5.12545 25.2035 5.36012C25.6622 5.59478 25.9875 5.99478 26.1795 6.56012C26.3715 7.11478 26.4675 7.87745 26.4675 8.84812V15.1201H25.2675V8.84812C25.2675 8.15478 25.2035 7.61078 25.0755 7.21612C24.9582 6.81078 24.7555 6.52812 24.4675 6.36812C24.1902 6.19745 23.8008 6.11212 23.2995 6.11212C22.5955 6.11212 22.0462 6.18145 21.6515 6.32012C21.2675 6.45878 21.0008 6.71478 20.8515 7.08812C20.7022 7.45078 20.6275 7.97878 20.6275 8.67212V15.1201H19.4275ZM32.0453 15.3441C31.5119 15.3441 31.0586 15.2855 30.6853 15.1681C30.3226 15.0615 30.0026 14.8748 29.7253 14.6081C29.4479 14.3308 29.1866 13.9681 28.9413 13.5201L29.8853 12.7361C30.0666 13.1201 30.2479 13.4241 30.4293 13.6481C30.6106 13.8615 30.8293 14.0161 31.0853 14.1121C31.3413 14.1975 31.6613 14.2401 32.0453 14.2401C32.8239 14.2401 33.4266 14.1815 33.8533 14.0641C34.2799 13.9468 34.5786 13.7548 34.7493 13.4881C34.9306 13.2108 35.0213 12.8375 35.0213 12.3681C35.0213 11.9308 34.9466 11.5948 34.7973 11.3601C34.6479 11.1148 34.3919 10.9281 34.0293 10.8001C33.6666 10.6721 33.1599 10.5655 32.5093 10.4801C31.6879 10.3735 31.0266 10.2188 30.5253 10.0161C30.0239 9.80278 29.6613 9.52012 29.4373 9.16812C29.2239 8.80545 29.1173 8.36278 29.1173 7.84012C29.1173 7.13612 29.2346 6.57612 29.4693 6.16012C29.7039 5.74412 30.0933 5.45078 30.6373 5.28012C31.1813 5.09878 31.9173 5.00812 32.8453 5.00812C33.4106 5.00812 33.8853 5.05612 34.2693 5.15212C34.6533 5.24812 34.9839 5.40812 35.2613 5.63212C35.5493 5.85612 35.8213 6.16545 36.0773 6.56012L35.1973 7.40812C35.0053 7.06678 34.8079 6.80545 34.6053 6.62412C34.4133 6.43212 34.1786 6.29878 33.9013 6.22412C33.6346 6.14945 33.2826 6.11212 32.8453 6.11212C32.1946 6.11212 31.6826 6.16545 31.3093 6.27212C30.9359 6.36812 30.6746 6.54412 30.5253 6.80012C30.3866 7.05612 30.3173 7.40278 30.3173 7.84012C30.3173 8.26678 30.4826 8.59745 30.8133 8.83212C31.1439 9.06678 31.7253 9.23745 32.5573 9.34412C33.4746 9.47212 34.1999 9.64812 34.7333 9.87212C35.2666 10.0855 35.6453 10.3895 35.8693 10.7841C36.1039 11.1788 36.2213 11.7068 36.2213 12.3681C36.2213 13.1041 36.0879 13.6908 35.8213 14.1281C35.5546 14.5548 35.1173 14.8641 34.5093 15.0561C33.9119 15.2481 33.0906 15.3441 32.0453 15.3441ZM42.039 15.3441C41.1323 15.3441 40.4123 15.1788 39.879 14.8481C39.3457 14.5175 38.967 13.9735 38.743 13.2161C38.519 12.4588 38.407 11.4455 38.407 10.1761C38.407 8.89612 38.519 7.87745 38.743 7.12012C38.967 6.36278 39.3457 5.82412 39.879 5.50412C40.4123 5.17345 41.1323 5.00812 42.039 5.00812C42.9563 5.00812 43.6763 5.17345 44.199 5.50412C44.7323 5.82412 45.111 6.36278 45.335 7.12012C45.5697 7.87745 45.687 8.89612 45.687 10.1761C45.687 11.4455 45.5697 12.4588 45.335 13.2161C45.111 13.9735 44.7323 14.5175 44.199 14.8481C43.6763 15.1788 42.9563 15.3441 42.039 15.3441ZM42.039 14.2401C42.6683 14.2401 43.159 14.1175 43.511 13.8721C43.863 13.6161 44.1137 13.1948 44.263 12.6081C44.4123 12.0108 44.487 11.2001 44.487 10.1761C44.487 9.13078 44.4123 8.31478 44.263 7.72812C44.1137 7.14145 43.863 6.72545 43.511 6.48012C43.159 6.23478 42.6683 6.11212 42.039 6.11212C41.4203 6.11212 40.9297 6.23478 40.567 6.48012C40.215 6.72545 39.9643 7.14145 39.815 7.72812C39.6763 8.31478 39.607 9.13078 39.607 10.1761C39.607 11.2001 39.6763 12.0108 39.815 12.6081C39.9643 13.1948 40.215 13.6161 40.567 13.8721C40.9297 14.1175 41.4203 14.2401 42.039 14.2401ZM53.3128 15.3441C52.6621 15.3441 52.1448 15.2321 51.7608 15.0081C51.3874 14.7841 51.1208 14.4108 50.9608 13.8881C50.8008 13.3548 50.7208 12.6295 50.7208 11.7121V3.42412H48.7048V2.32012H51.9208V11.7121C51.9208 12.3521 51.9634 12.8588 52.0488 13.2321C52.1341 13.5948 52.2781 13.8561 52.4808 14.0161C52.6834 14.1655 52.9608 14.2401 53.3128 14.2401C53.5368 14.2401 53.7501 14.1921 53.9528 14.0961C54.1554 13.9895 54.4168 13.7975 54.7368 13.5201L55.4248 14.5601C54.9981 14.8481 54.6301 15.0508 54.3208 15.1681C54.0221 15.2855 53.6861 15.3441 53.3128 15.3441ZM61.2745 15.3441C60.2825 15.3441 59.4985 15.1895 58.9225 14.8801C58.3572 14.5601 57.9572 14.0215 57.7225 13.2641C57.4878 12.5068 57.3705 11.4775 57.3705 10.1761C57.3705 8.86412 57.4878 7.83478 57.7225 7.08812C57.9572 6.33078 58.3572 5.79745 58.9225 5.48812C59.4985 5.16812 60.2825 5.00812 61.2745 5.00812C62.2452 5.00812 63.0078 5.17345 63.5625 5.50412C64.1172 5.82412 64.5118 6.37878 64.7465 7.16812C64.9812 7.94678 65.0985 9.01345 65.0985 10.3681H57.8345V9.26412H63.8665C63.8665 8.46412 63.7865 7.83478 63.6265 7.37612C63.4772 6.91745 63.2105 6.59212 62.8265 6.40012C62.4532 6.20812 61.9358 6.11212 61.2745 6.11212C60.5812 6.11212 60.0372 6.23478 59.6425 6.48012C59.2585 6.71478 58.9812 7.11478 58.8105 7.68012C58.6505 8.24545 58.5705 9.02945 58.5705 10.0321C58.5705 11.0881 58.6505 11.9255 58.8105 12.5441C58.9812 13.1521 59.2585 13.5895 59.6425 13.8561C60.0372 14.1121 60.5812 14.2401 61.2745 14.2401C61.6692 14.2401 62.0105 14.1975 62.2985 14.1121C62.5865 14.0268 62.8532 13.8881 63.0985 13.6961C63.3545 13.4935 63.6105 13.2161 63.8665 12.8641L64.8265 13.5041C64.5065 13.9735 64.1812 14.3415 63.8505 14.6081C63.5305 14.8748 63.1625 15.0615 62.7465 15.1681C62.3412 15.2855 61.8505 15.3441 61.2745 15.3441Z" fill="#9CDCFE"/>
<path d="M70.8203 15.3441C70.3829 15.3441 70.0789 15.2695 69.9083 15.1201C69.7483 14.9601 69.6683 14.6721 69.6683 14.2561C69.6683 13.8508 69.7483 13.5735 69.9083 13.4241C70.0789 13.2641 70.3829 13.1841 70.8203 13.1841C71.2683 13.1841 71.5723 13.2641 71.7323 13.4241C71.8923 13.5735 71.9723 13.8508 71.9723 14.2561C71.9723 14.6721 71.8923 14.9601 71.7323 15.1201C71.5723 15.2695 71.2683 15.3441 70.8203 15.3441ZM82.094 15.3441C81.4433 15.3441 80.926 15.2321 80.542 15.0081C80.1687 14.7841 79.902 14.4108 79.742 13.8881C79.582 13.3548 79.502 12.6295 79.502 11.7121V3.42412H77.486V2.32012H80.702V11.7121C80.702 12.3521 80.7447 12.8588 80.83 13.2321C80.9153 13.5948 81.0593 13.8561 81.262 14.0161C81.4647 14.1655 81.742 14.2401 82.094 14.2401C82.318 14.2401 82.5313 14.1921 82.734 14.0961C82.9367 13.9895 83.198 13.7975 83.518 13.5201L84.206 14.5601C83.7793 14.8481 83.4113 15.0508 83.102 15.1681C82.8033 15.2855 82.4673 15.3441 82.094 15.3441ZM90.0078 15.3441C89.1011 15.3441 88.3811 15.1788 87.8478 14.8481C87.3144 14.5175 86.9358 13.9735 86.7118 13.2161C86.4878 12.4588 86.3758 11.4455 86.3758 10.1761C86.3758 8.89612 86.4878 7.87745 86.7118 7.12012C86.9358 6.36278 87.3144 5.82412 87.8478 5.50412C88.3811 5.17345 89.1011 5.00812 90.0078 5.00812C90.9251 5.00812 91.6451 5.17345 92.1678 5.50412C92.7011 5.82412 93.0798 6.36278 93.3038 7.12012C93.5384 7.87745 93.6558 8.89612 93.6558 10.1761C93.6558 11.4455 93.5384 12.4588 93.3038 13.2161C93.0798 13.9735 92.7011 14.5175 92.1678 14.8481C91.6451 15.1788 90.9251 15.3441 90.0078 15.3441ZM90.0078 14.2401C90.6371 14.2401 91.1278 14.1175 91.4798 13.8721C91.8318 13.6161 92.0824 13.1948 92.2318 12.6081C92.3811 12.0108 92.4558 11.2001 92.4558 10.1761C92.4558 9.13078 92.3811 8.31478 92.2318 7.72812C92.0824 7.14145 91.8318 6.72545 91.4798 6.48012C91.1278 6.23478 90.6371 6.11212 90.0078 6.11212C89.3891 6.11212 88.8984 6.23478 88.5358 6.48012C88.1838 6.72545 87.9331 7.14145 87.7838 7.72812C87.6451 8.31478 87.5758 9.13078 87.5758 10.1761C87.5758 11.2001 87.6451 12.0108 87.7838 12.6081C87.9331 13.1948 88.1838 13.6161 88.5358 13.8721C88.8984 14.1175 89.3891 14.2401 90.0078 14.2401ZM99.5695 18.2561C99.1428 18.2561 98.7748 18.2188 98.4655 18.1441C98.1562 18.0801 97.8788 17.9681 97.6335 17.8081C97.3988 17.6588 97.1535 17.4455 96.8975 17.1681L97.7775 16.4321C97.9588 16.6135 98.1242 16.7575 98.2735 16.8641C98.4335 16.9708 98.6148 17.0455 98.8175 17.0881C99.0202 17.1308 99.2708 17.1521 99.5695 17.1521C100.178 17.1521 100.652 17.0668 100.994 16.8961C101.335 16.7361 101.575 16.4535 101.714 16.0481C101.852 15.6535 101.922 15.1041 101.922 14.4001V13.4241C101.676 13.7975 101.34 14.0641 100.914 14.2241C100.498 14.3841 100.012 14.4641 99.4575 14.4641C98.5508 14.4641 97.8308 14.2988 97.2975 13.9681C96.7642 13.6268 96.3855 13.0721 96.1615 12.3041C95.9375 11.5361 95.8255 10.5015 95.8255 9.20012C95.8255 8.16545 95.9375 7.34412 96.1615 6.73612C96.3962 6.11745 96.7748 5.67478 97.2975 5.40812C97.8308 5.14145 98.5508 5.00812 99.4575 5.00812C100.012 5.00812 100.498 5.06678 100.914 5.18412C101.33 5.29078 101.666 5.48812 101.922 5.77612V5.23212H103.122V14.2561C103.122 15.2481 103.01 16.0375 102.786 16.6241C102.572 17.2108 102.204 17.6268 101.682 17.8721C101.17 18.1281 100.466 18.2561 99.5695 18.2561ZM99.4575 13.3601C100.247 13.3601 100.855 13.1628 101.282 12.7681C101.708 12.3735 101.922 11.7228 101.922 10.8161V7.32812C101.922 7.04012 101.815 6.80545 101.602 6.62412C101.399 6.44278 101.111 6.31478 100.738 6.24012C100.375 6.15478 99.9482 6.11212 99.4575 6.11212C98.8388 6.11212 98.3482 6.20812 97.9855 6.40012C97.6335 6.58145 97.3828 6.89612 97.2335 7.34412C97.0948 7.79212 97.0255 8.41078 97.0255 9.20012C97.0255 10.2561 97.0948 11.0881 97.2335 11.6961C97.3828 12.3041 97.6388 12.7361 98.0015 12.9921C98.3642 13.2375 98.8495 13.3601 99.4575 13.3601Z" fill="#DCDCAA"/>
<path d="M111.643 17.4401C110.683 17.4401 109.846 17.0775 109.131 16.3521C108.417 15.6268 107.862 14.6081 107.467 13.2961C107.073 11.9841 106.875 10.4588 106.875 8.72012C106.875 6.97078 107.073 5.44545 107.467 4.14412C107.862 2.83212 108.417 1.81345 109.131 1.08812C109.846 0.362783 110.683 0.000116348 111.643 0.000116348V1.10412C110.929 1.10412 110.305 1.42412 109.771 2.06412C109.238 2.69345 108.822 3.57878 108.523 4.72012C108.225 5.86145 108.075 7.19478 108.075 8.72012C108.075 10.2455 108.225 11.5788 108.523 12.7201C108.822 13.8615 109.238 14.7468 109.771 15.3761C110.305 16.0161 110.929 16.3361 111.643 16.3361V17.4401ZM260.263 17.4401V16.3361C260.978 16.3361 261.602 16.0161 262.135 15.3761C262.669 14.7468 263.085 13.8615 263.383 12.7201C263.682 11.5788 263.831 10.2455 263.831 8.72012C263.831 7.19478 263.682 5.86145 263.383 4.72012C263.085 3.57878 262.669 2.69345 262.135 2.06412C261.602 1.42412 260.978 1.10412 260.263 1.10412V0.000116348C261.213 0.000116348 262.045 0.362783 262.759 1.08812C263.474 1.81345 264.029 2.83212 264.423 4.14412C264.829 5.44545 265.031 6.97078 265.031 8.72012C265.031 10.4588 264.829 11.9841 264.423 13.2961C264.029 14.6081 263.474 15.6268 262.759 16.3521C262.045 17.0775 261.213 17.4401 260.263 17.4401Z" fill="#F0DB4E"/>
<path d="M122.469 2.09612C122.117 2.66145 121.834 3.13078 121.621 3.50412C121.418 3.86678 121.274 4.16545 121.189 4.40012C121.104 4.63478 121.061 4.83212 121.061 4.99212C121.392 4.99212 121.621 5.07212 121.749 5.23212C121.877 5.39212 121.941 5.67478 121.941 6.08012C121.941 6.48545 121.861 6.76812 121.701 6.92812C121.541 7.08812 121.237 7.16812 120.789 7.16812C120.352 7.16812 120.048 7.08812 119.877 6.92812C119.717 6.76812 119.637 6.48545 119.637 6.08012C119.637 5.63212 119.69 5.21078 119.797 4.81612C119.904 4.42145 120.085 4.01078 120.341 3.58412C120.608 3.14678 120.96 2.65078 121.397 2.09612H122.469ZM118.069 2.09612C117.717 2.66145 117.434 3.13078 117.221 3.50412C117.018 3.86678 116.874 4.16545 116.789 4.40012C116.704 4.63478 116.661 4.83212 116.661 4.99212C116.992 4.99212 117.221 5.07212 117.349 5.23212C117.477 5.39212 117.541 5.67478 117.541 6.08012C117.541 6.48545 117.461 6.76812 117.301 6.92812C117.141 7.08812 116.837 7.16812 116.389 7.16812C115.952 7.16812 115.648 7.08812 115.477 6.92812C115.317 6.76812 115.237 6.48545 115.237 6.08012C115.237 5.63212 115.29 5.21078 115.397 4.81612C115.504 4.42145 115.685 4.01078 115.941 3.58412C116.208 3.14678 116.56 2.65078 116.997 2.09612H118.069ZM130.847 15.1201V2.32012H132.047V15.1201H130.847ZM124.735 15.1201V2.32012H125.935V15.1201H124.735ZM125.199 8.89612V7.79212H131.583V8.89612H125.199ZM138.025 15.3441C137.033 15.3441 136.249 15.1895 135.673 14.8801C135.107 14.5601 134.707 14.0215 134.473 13.2641C134.238 12.5068 134.121 11.4775 134.121 10.1761C134.121 8.86412 134.238 7.83478 134.473 7.08812C134.707 6.33078 135.107 5.79745 135.673 5.48812C136.249 5.16812 137.033 5.00812 138.025 5.00812C138.995 5.00812 139.758 5.17345 140.313 5.50412C140.867 5.82412 141.262 6.37878 141.497 7.16812C141.731 7.94678 141.849 9.01345 141.849 10.3681H134.585V9.26412H140.617C140.617 8.46412 140.537 7.83478 140.377 7.37612C140.227 6.91745 139.961 6.59212 139.577 6.40012C139.203 6.20812 138.686 6.11212 138.025 6.11212C137.331 6.11212 136.787 6.23478 136.393 6.48012C136.009 6.71478 135.731 7.11478 135.561 7.68012C135.401 8.24545 135.321 9.02945 135.321 10.0321C135.321 11.0881 135.401 11.9255 135.561 12.5441C135.731 13.1521 136.009 13.5895 136.393 13.8561C136.787 14.1121 137.331 14.2401 138.025 14.2401C138.419 14.2401 138.761 14.1975 139.049 14.1121C139.337 14.0268 139.603 13.8881 139.849 13.6961C140.105 13.4935 140.361 13.2161 140.617 12.8641L141.577 13.5041C141.257 13.9735 140.931 14.3415 140.601 14.6081C140.281 14.8748 139.913 15.0615 139.497 15.1681C139.091 15.2855 138.601 15.3441 138.025 15.3441ZM149.25 15.3441C148.6 15.3441 148.082 15.2321 147.698 15.0081C147.325 14.7841 147.058 14.4108 146.898 13.8881C146.738 13.3548 146.658 12.6295 146.658 11.7121V3.42412H144.642V2.32012H147.858V11.7121C147.858 12.3521 147.901 12.8588 147.986 13.2321C148.072 13.5948 148.216 13.8561 148.418 14.0161C148.621 14.1655 148.898 14.2401 149.25 14.2401C149.474 14.2401 149.688 14.1921 149.89 14.0961C150.093 13.9895 150.354 13.7975 150.674 13.5201L151.362 14.5601C150.936 14.8481 150.568 15.0508 150.258 15.1681C149.96 15.2855 149.624 15.3441 149.25 15.3441ZM158.844 15.3441C158.193 15.3441 157.676 15.2321 157.292 15.0081C156.919 14.7841 156.652 14.4108 156.492 13.8881C156.332 13.3548 156.252 12.6295 156.252 11.7121V3.42412H154.236V2.32012H157.452V11.7121C157.452 12.3521 157.495 12.8588 157.58 13.2321C157.665 13.5948 157.809 13.8561 158.012 14.0161C158.215 14.1655 158.492 14.2401 158.844 14.2401C159.068 14.2401 159.281 14.1921 159.484 14.0961C159.687 13.9895 159.948 13.7975 160.268 13.5201L160.956 14.5601C160.529 14.8481 160.161 15.0508 159.852 15.1681C159.553 15.2855 159.217 15.3441 158.844 15.3441ZM166.758 15.3441C165.851 15.3441 165.131 15.1788 164.598 14.8481C164.064 14.5175 163.686 13.9735 163.462 13.2161C163.238 12.4588 163.126 11.4455 163.126 10.1761C163.126 8.89612 163.238 7.87745 163.462 7.12012C163.686 6.36278 164.064 5.82412 164.598 5.50412C165.131 5.17345 165.851 5.00812 166.758 5.00812C167.675 5.00812 168.395 5.17345 168.918 5.50412C169.451 5.82412 169.83 6.36278 170.054 7.12012C170.288 7.87745 170.406 8.89612 170.406 10.1761C170.406 11.4455 170.288 12.4588 170.054 13.2161C169.83 13.9735 169.451 14.5175 168.918 14.8481C168.395 15.1788 167.675 15.3441 166.758 15.3441ZM166.758 14.2401C167.387 14.2401 167.878 14.1175 168.23 13.8721C168.582 13.6161 168.832 13.1948 168.982 12.6081C169.131 12.0108 169.206 11.2001 169.206 10.1761C169.206 9.13078 169.131 8.31478 168.982 7.72812C168.832 7.14145 168.582 6.72545 168.23 6.48012C167.878 6.23478 167.387 6.11212 166.758 6.11212C166.139 6.11212 165.648 6.23478 165.286 6.48012C164.934 6.72545 164.683 7.14145 164.534 7.72812C164.395 8.31478 164.326 9.13078 164.326 10.1761C164.326 11.2001 164.395 12.0108 164.534 12.6081C164.683 13.1948 164.934 13.6161 165.286 13.8721C165.648 14.1175 166.139 14.2401 166.758 14.2401ZM174.672 18.2561C175.034 17.6801 175.317 17.2055 175.52 16.8321C175.733 16.4695 175.882 16.1708 175.968 15.9361C176.053 15.7121 176.096 15.5148 176.096 15.3441C175.754 15.3441 175.52 15.2695 175.392 15.1201C175.264 14.9601 175.2 14.6721 175.2 14.2561C175.2 13.8508 175.28 13.5735 175.44 13.4241C175.61 13.2641 175.914 13.1841 176.352 13.1841C176.8 13.1841 177.104 13.2641 177.264 13.4241C177.424 13.5735 177.504 13.8508 177.504 14.2561C177.504 14.7041 177.45 15.1255 177.344 15.5201C177.237 15.9148 177.056 16.3255 176.8 16.7521C176.554 17.1895 176.208 17.6908 175.76 18.2561H174.672ZM192.835 15.1201L191.075 2.32012H192.291L193.603 12.1761L194.979 6.35212H196.099L197.491 12.1761L198.787 2.32012H200.003L198.243 15.1201H197.091L195.539 8.84812L194.035 15.1201H192.835ZM205.133 15.3441C204.226 15.3441 203.506 15.1788 202.973 14.8481C202.439 14.5175 202.061 13.9735 201.837 13.2161C201.613 12.4588 201.501 11.4455 201.501 10.1761C201.501 8.89612 201.613 7.87745 201.837 7.12012C202.061 6.36278 202.439 5.82412 202.973 5.50412C203.506 5.17345 204.226 5.00812 205.133 5.00812C206.05 5.00812 206.77 5.17345 207.293 5.50412C207.826 5.82412 208.205 6.36278 208.429 7.12012C208.663 7.87745 208.781 8.89612 208.781 10.1761C208.781 11.4455 208.663 12.4588 208.429 13.2161C208.205 13.9735 207.826 14.5175 207.293 14.8481C206.77 15.1788 206.05 15.3441 205.133 15.3441ZM205.133 14.2401C205.762 14.2401 206.253 14.1175 206.605 13.8721C206.957 13.6161 207.207 13.1948 207.357 12.6081C207.506 12.0108 207.581 11.2001 207.581 10.1761C207.581 9.13078 207.506 8.31478 207.357 7.72812C207.207 7.14145 206.957 6.72545 206.605 6.48012C206.253 6.23478 205.762 6.11212 205.133 6.11212C204.514 6.11212 204.023 6.23478 203.661 6.48012C203.309 6.72545 203.058 7.14145 202.909 7.72812C202.77 8.31478 202.701 9.13078 202.701 10.1761C202.701 11.2001 202.77 12.0108 202.909 12.6081C203.058 13.1948 203.309 13.6161 203.661 13.8721C204.023 14.1175 204.514 14.2401 205.133 14.2401ZM211.735 15.1201V5.23212H212.935V6.73612C213.063 6.44812 213.249 6.17612 213.495 5.92012C213.751 5.65345 214.055 5.43478 214.407 5.26412C214.759 5.09345 215.143 5.00812 215.559 5.00812C216.103 5.00812 216.556 5.07745 216.919 5.21612C217.281 5.34412 217.591 5.56278 217.847 5.87212C218.103 6.18145 218.337 6.60812 218.551 7.15212L217.479 7.63212C217.34 7.23745 217.191 6.93345 217.031 6.72012C216.871 6.49612 216.673 6.34145 216.439 6.25612C216.215 6.16012 215.921 6.11212 215.559 6.11212C215.057 6.11212 214.636 6.22412 214.295 6.44812C213.964 6.66145 213.697 6.94412 213.495 7.29612C213.292 7.64812 213.148 8.03212 213.063 8.44812C212.977 8.85345 212.935 9.24278 212.935 9.61612V15.1201H211.735ZM226 15.3441C225.35 15.3441 224.832 15.2321 224.448 15.0081C224.075 14.7841 223.808 14.4108 223.648 13.8881C223.488 13.3548 223.408 12.6295 223.408 11.7121V3.42412H221.392V2.32012H224.608V11.7121C224.608 12.3521 224.651 12.8588 224.736 13.2321C224.822 13.5948 224.966 13.8561 225.168 14.0161C225.371 14.1655 225.648 14.2401 226 14.2401C226.224 14.2401 226.438 14.1921 226.64 14.0961C226.843 13.9895 227.104 13.7975 227.424 13.5201L228.112 14.5601C227.686 14.8481 227.318 15.0508 227.008 15.1681C226.71 15.2855 226.374 15.3441 226 15.3441ZM233.834 15.3441C232.927 15.3441 232.207 15.1788 231.674 14.8481C231.141 14.5175 230.762 13.9788 230.538 13.2321C230.314 12.4748 230.202 11.4615 230.202 10.1921C230.202 8.91212 230.314 7.89345 230.538 7.13612C230.762 6.36812 231.141 5.82412 231.674 5.50412C232.207 5.17345 232.927 5.00812 233.834 5.00812C234.389 5.00812 234.874 5.08812 235.29 5.24812C235.717 5.39745 236.053 5.65878 236.298 6.03212V2.32012H237.498V15.1201H236.298V14.5601C236.042 14.8481 235.706 15.0508 235.29 15.1681C234.874 15.2855 234.389 15.3441 233.834 15.3441ZM233.834 14.2401C234.325 14.2401 234.751 14.1975 235.114 14.1121C235.487 14.0268 235.775 13.8988 235.978 13.7281C236.191 13.5468 236.298 13.3068 236.298 13.0081V8.64012C236.298 7.73345 236.085 7.08812 235.658 6.70412C235.231 6.30945 234.623 6.11212 233.834 6.11212C233.215 6.11212 232.725 6.23478 232.362 6.48012C232.01 6.72545 231.759 7.14678 231.61 7.74412C231.471 8.33078 231.402 9.14678 231.402 10.1921C231.402 11.2161 231.471 12.0215 231.61 12.6081C231.759 13.1948 232.01 13.6161 232.362 13.8721C232.725 14.1175 233.215 14.2401 233.834 14.2401ZM242.916 11.2961L242.756 2.32012H244.276L244.116 11.2961H242.916ZM243.508 15.3441C243.07 15.3441 242.766 15.2695 242.596 15.1201C242.436 14.9601 242.356 14.6721 242.356 14.2561C242.356 13.8508 242.436 13.5735 242.596 13.4241C242.766 13.2641 243.07 13.1841 243.508 13.1841C243.956 13.1841 244.26 13.2641 244.42 13.4241C244.58 13.5735 244.66 13.8508 244.66 14.2561C244.66 14.6721 244.58 14.9601 244.42 15.1201C244.26 15.2695 243.956 15.3441 243.508 15.3441ZM249.422 7.82412C249.784 7.24812 250.067 6.77878 250.27 6.41612C250.483 6.04278 250.632 5.74412 250.718 5.52012C250.803 5.28545 250.846 5.08278 250.846 4.91212C250.504 4.91212 250.27 4.83745 250.142 4.68812C250.014 4.52812 249.95 4.24012 249.95 3.82412C249.95 3.41878 250.03 3.14145 250.19 2.99212C250.36 2.83212 250.664 2.75212 251.102 2.75212C251.55 2.75212 251.854 2.83212 252.014 2.99212C252.174 3.14145 252.254 3.41878 252.254 3.82412C252.254 4.27212 252.2 4.69345 252.094 5.08812C251.987 5.48278 251.806 5.89878 251.55 6.33612C251.304 6.76278 250.958 7.25878 250.51 7.82412H249.422ZM253.822 7.82412C254.184 7.24812 254.467 6.77878 254.67 6.41612C254.883 6.04278 255.032 5.74412 255.118 5.52012C255.203 5.28545 255.246 5.08278 255.246 4.91212C254.904 4.91212 254.67 4.83745 254.542 4.68812C254.414 4.52812 254.35 4.24012 254.35 3.82412C254.35 3.41878 254.43 3.14145 254.59 2.99212C254.76 2.83212 255.064 2.75212 255.502 2.75212C255.95 2.75212 256.254 2.83212 256.414 2.99212C256.574 3.14145 256.654 3.41878 256.654 3.82412C256.654 4.27212 256.6 4.69345 256.494 5.08812C256.387 5.48278 256.206 5.89878 255.95 6.33612C255.704 6.76278 255.358 7.25878 254.91 7.82412H253.822Z" fill="#CE9178"/>
<path d="M270.609 18.2561C270.972 17.6801 271.254 17.2055 271.457 16.8321C271.67 16.4695 271.82 16.1708 271.905 15.9361C271.99 15.7121 272.033 15.5148 272.033 15.3441C271.692 15.3441 271.457 15.2695 271.329 15.1201C271.201 14.9601 271.137 14.6721 271.137 14.2561C271.137 13.8508 271.217 13.5735 271.377 13.4241C271.548 13.2641 271.852 13.1841 272.289 13.1841C272.737 13.1841 273.041 13.2641 273.201 13.4241C273.361 13.5735 273.441 13.8508 273.441 14.2561C273.441 14.7041 273.388 15.1255 273.281 15.5201C273.174 15.9148 272.993 16.3255 272.737 16.7521C272.492 17.1895 272.145 17.6908 271.697 18.2561H270.609ZM272.289 7.20012C271.852 7.20012 271.548 7.12545 271.377 6.97612C271.217 6.81612 271.137 6.52812 271.137 6.11212C271.137 5.70678 271.217 5.42945 271.377 5.28012C271.548 5.12012 271.852 5.04012 272.289 5.04012C272.737 5.04012 273.041 5.12012 273.201 5.28012C273.361 5.42945 273.441 5.70678 273.441 6.11212C273.441 6.52812 273.361 6.81612 273.201 6.97612C273.041 7.12545 272.737 7.20012 272.289 7.20012Z" fill="white"/>
</svg>
